<?xml version="1.0" encoding="utf-8"?>
<!-- Generator: Adobe Illustrator 16.0.0, SVG Export Plug-In . SVG Version: 6.00 Build 0)  -->
<!DOCTYPE svg PUBLIC "-//W3C//DTD SVG 1.1//EN" "http://www.w3.org/Graphics/SVG/1.1/DTD/svg11.dtd">
<svg version="1.1" id="Layer_1" xmlns="http://www.w3.org/2000/svg" xmlns:xlink="http://www.w3.org/1999/xlink" x="0px" y="0px"
	 width="124px" height="124px" viewBox="0 0 124 124" enable-background="new 0 0 124 124" xml:space="preserve">
<circle fill="#FFFFFF" cx="62" cy="62" r="59.5"/>
<g>
	<path d="M22.79,84.01c-0.17-0.23-0.36-0.41-0.45-0.64c-0.18-0.44-0.32-0.84-0.95-0.62c-0.09,0.03-0.44-0.33-0.44-0.51
		c0.03-1.16-0.6-2.11-0.92-3.16c-0.4-1.3-0.84-2.59-1.32-3.86c-0.15-0.41-0.52-0.72-0.73-1.11c-0.27-0.49-0.58-1-0.7-1.53
		c-0.12-0.57-0.15-1.22-0.02-1.79c0.35-1.49,1.67-1.46,2.69-0.99c0.62,0.29,1.17,0.74,1.82,1.16c-0.06-0.66-0.13-1.37-0.2-2.15
		c-0.29,0.23-0.52,0.41-0.75,0.57c-0.11,0.08-0.26,0.11-0.38,0.17c-0.06-0.15-0.14-0.3-0.17-0.45c-0.04-0.19-0.04-0.39-0.07-0.7
		c-0.23,0.21-0.35,0.32-0.59,0.53c0.03-0.62,0.1-1.14,0.06-1.65c-0.04-0.48-0.19-0.96-0.28-1.44c-0.05,0.01-0.11,0.02-0.16,0.03
		c-0.01,0.13-0.03,0.26-0.06,0.51c-0.65-2.11-1.25-4.09-1.86-6.08c-0.03,0-0.06,0.01-0.09,0.01c0.05,0.41,0.09,0.82,0.15,1.22
		c0.08,0.5,0.18,1,0.26,1.51c0.02,0.11-0.02,0.25-0.08,0.35c-0.23,0.38-0.02,0.46,0.35,0.45c-0.15,0.25-0.29,0.47-0.48,0.77
		c-0.65-3.8-0.92-7.61-2.69-11.05c0.05-0.02,0.1-0.04,0.15-0.06c0.23,0.36,0.46,0.73,0.72,1.15c-0.35-2.47-0.35-4.88,0.51-7.32
		c-0.24,0.06-0.37,0.1-0.52,0.14c-0.09-0.69,0.12-1.19,0.59-1.67c0.35-0.36,0.6-0.83,0.82-1.3c0.37-0.8,0.67-1.64,1.01-2.45
		c0.38-0.9,0.73-1.83,1.19-2.69c0.6-1.13,1.27-2.23,2.51-3.02c-0.09,0.28-0.15,0.46-0.25,0.8c0.25-0.17,0.43-0.26,0.56-0.39
		c0.68-0.73,1.33-1.48,2.02-2.2c0.79-0.83,1.53-1.72,2.42-2.43c1.19-0.96,2.48-1.82,3.78-2.63c1.08-0.67,2.22-1.25,3.37-1.8
		c0.81-0.39,1.68-0.65,2.51-1c0.36-0.15,0.69-0.4,1.05-0.55c0.18-0.08,0.42-0.04,0.62-0.09c0.57-0.15,1.14-0.31,1.71-0.47
		c1.52-0.45,3.04-0.83,4.63-0.93c0.85-0.05,1.69-0.2,2.53-0.36c0.24-0.04,0.42-0.36,0.66-0.4c2.03-0.34,4.04-0.95,6.12-0.71
		c0.9,0.1,1.81,0.36,2.65,0.73c1.33,0.58,2.6,1.29,3.87,1.99c1.36,0.75,2.7,1.52,4.02,2.33c1.18,0.73,2.47,1.37,3.45,2.31
		c1.32,1.27,3.14,2.08,3.95,3.85c0.45,0.97,0.72,2.02,1.09,3.02c0.14,0.4,0.22,0.99,0.51,1.15c0.89,0.47,1.26,1.31,1.63,2.1
		c0.73,1.56,1.34,3.19,2.01,4.78c0.05,0.11,0.14,0.21,0.21,0.31c0.07-0.02,0.14-0.03,0.21-0.05c-0.11-0.59-0.22-1.18-0.32-1.77
		c-0.05-0.3-0.11-0.61-0.16-0.91c-0.01-0.09,0.04-0.21-0.01-0.28c-0.69-1.03-0.87-2.21-1.2-3.37c-0.21-0.74-0.73-1.4-1.1-2.07
		c0.03,0,0.17,0,0.41,0c-0.3-0.65-0.53-1.27-0.85-1.83c-0.54-0.95-1.13-1.87-1.74-2.79c-0.75-1.15-1.51-2.28-2.64-3.14
		c-2.07-1.56-4.4-2.6-6.82-3.48c-1.1-0.4-2.23-0.71-3.39-1.08c0.25-0.04,0.52-0.13,0.79-0.13c0.36-0.01,0.74,0,1.09,0.07
		c0.41,0.08,0.82,0.2,1.21,0.35c0.71,0.28,1.41,0.59,2.11,0.9c0.83,0.37,1.66,0.76,2.48,1.15c0.23,0.11,0.43,0.26,0.65,0.38
		c0.42,0.23,0.78,0.59,1.35,0.42c0.18-0.05,0.45,0.12,0.64,0.25c0.69,0.49,1.35,1.02,2.06,1.49c0.43,0.29,0.94,0.46,1.36,0.77
		c0.77,0.57,1.54,1.15,2.22,1.81c1.02,0.99,1.94,2.08,2.64,3.33c0.13,0.24,0.24,0.48,0.36,0.75c-0.43,0.21-0.57,0.05-0.68-0.3
		c-0.08-0.24-0.26-0.46-0.39-0.69c-0.06,0.03-0.12,0.05-0.18,0.08c0.28,1,0.55,2.01,0.83,3.01c0.07,0,0.13-0.01,0.19-0.01
		c0.05-0.42,0.1-0.83,0.15-1.25c0.05-0.01,0.1-0.02,0.16-0.03c0.08,0.18,0.21,0.36,0.22,0.54c0.08,1.73,0.6,3.35,1.13,4.98
		c0.47,1.44,0.84,2.92,1.24,4.39c0.31,1.18,0.65,2.36,0.88,3.56c0.24,1.29,0.43,2.61,0.51,3.92c0.03,0.4-0.34,0.83-0.53,1.25
		c-0.07-0.01-0.15-0.01-0.22-0.02c-0.07-0.36-0.17-0.71-0.21-1.07c-0.19-1.61-0.37-3.22-0.55-4.83c-0.03-0.28-0.05-0.55-0.11-0.82
		c-0.03-0.17-0.11-0.34-0.17-0.51c-0.06,0.01-0.12,0.02-0.19,0.03c0,0.88,0,1.76,0,2.64c-0.09,0.01-0.18,0.02-0.27,0.03
		c0.01-3.36-0.29-6.68-1.36-9.86c-0.08,0.01-0.16,0.01-0.24,0.02c0.06,0.53,0.04,1.09,0.19,1.6c0.57,1.98,0.72,4.02,0.96,6.05
		c0.1,0.86,0.14,1.73,0.22,2.6c0.02,0.17,0.11,0.33,0.17,0.5c0.05,0.13,0.17,0.28,0.14,0.38c-0.39,1.14,0.08,2.23,0.16,3.34
		c0.08,1.06,0.28,2.12,0.46,3.17c0.06,0.39,0.21,0.77,0.32,1.16c0.08,0.01,0.15,0.02,0.23,0.03c0.67-1.15,1.34-2.3,2.09-3.6
		c0.24,0.67,0.5,0.65,0.75,0.28c0.49-0.74,1.28-0.8,2.04-0.85c0.45-0.03,0.94,0.67,0.93,1.22c0,0.34-0.04,0.67-0.09,1.01
		c-0.3,2.07-0.62,4.14-1.25,6.15c-0.12,0.38-0.15,0.78-0.22,1.17c-0.01,0.09-0.02,0.24,0.03,0.28c0.51,0.41,0.25,0.95,0.24,1.43
		c-0.02,1.24-0.08,2.49-0.08,3.73c0,0.78-0.05,0.88-0.8,1.11c-0.17,0.05-0.33,0.21-0.44,0.36c-0.43,0.59-0.87,1.13-1.68,1.19
		c-0.09,0.01-0.24,0.34-0.21,0.49c0.14,0.88,0.36,1.74,0.48,2.62c0.19,1.41,0.4,2.83,0.46,4.25c0.14,3.2-0.26,6.37-0.69,9.53
		c-0.29,2.09-0.83,4.13-1.88,5.97c-0.96,1.68-2.02,3.3-3.04,4.95c-0.6,0.98-1.18,1.97-1.79,2.94c-0.64,1.02-1.3,2.03-1.96,3.04
		c-0.48,0.74-0.94,1.51-1.49,2.2c-0.41,0.52-0.98,0.91-1.39,1.43c-1.09,1.38-2.36,2.56-3.79,3.56c-0.79,0.55-1.63,1.12-2.54,1.39
		c-1.25,0.37-2.54,0.68-3.91,0.5c-1.56-0.21-3.09-0.47-4.55-1.04c-1.14-0.44-2.25-0.99-3.34-1.54c-1.73-0.87-3.46-1.76-5.17-2.67
		c-1.69-0.9-3.34-1.9-5.06-2.75c-2.16-1.09-3.94-2.7-5.89-4.08c-0.82-0.58-1.61-1.21-2.42-1.82c-2.23-1.68-4.23-3.59-5.98-5.76
		c-1.61-2-2.58-4.34-3.39-6.76c-1.26-3.78-1.76-7.71-2.37-11.62c-0.27-1.76-0.5-3.53-0.64-5.31c-0.07-0.91-0.7-1.28-1.29-1.7
		c-0.55-0.39-1.16-0.71-1.79-0.98c-0.26-0.11-0.74-0.12-0.88,0.04c-0.27,0.28-0.2,0.67,0.06,1.07c0.33,0.52,0.49,1.14,0.73,1.72
		c0.63,1.52,1.3,3.02,1.86,4.56c0.31,0.86,0.45,1.78,0.6,2.68c0.07,0.42,0.12,0.72,0.55,0.96C22.73,82.15,23.13,83.32,22.79,84.01z
		 M28.59,45.62c0,0.39,0,0.78,0,1.17c0.08,0,0.16,0.01,0.24,0.01c0.06-0.54,0.13-1.08,0.2-1.74c-0.22,0.27-0.34,0.42-0.46,0.58
		c0.07-0.66,0.15-1.31,0.22-1.97c-0.79,1.54-1.19,3.15-1.25,4.87c0.29-0.05,0.5-0.09,0.74-0.14c0-0.2-0.02-0.4,0-0.59
		c0.02-0.15,0.09-0.29,0.16-0.55C28.29,46.9,28.32,46.18,28.59,45.62z M35.64,41.32c-0.24,0.43-0.49,0.85-0.73,1.28
		c-0.03,0.05-0.04,0.12-0.03,0.17c0.07,0.33,0.15,0.66,0.22,0.99c0.86-0.28,1.98-2.78,1.57-3.86c-0.19,0.25-0.35,0.45-0.5,0.65
		c-0.19,0.26-0.38,0.52-0.56,0.78c0.19-0.36,0.37-0.72,0.58-1.07c0.3-0.52,0.76-0.99,0.91-1.54c0.26-0.96,0.36-1.97,0.48-2.96
		c0.04-0.32-0.07-0.66-0.13-1.05c-0.32,0.2-0.53,0.3-0.72,0.44c-0.66,0.49-1.22,1.03-1.25,1.94c-0.03,0.82-0.1,1.64-0.15,2.47
		c-0.03,0.45-0.08,0.9-0.06,1.35C35.3,41.05,35.52,41.18,35.64,41.32z M20.02,50.74c0.02-0.15,0.01-0.33,0.07-0.46
		c0.83-1.7,1.08-3.56,1.53-5.37c0.04-0.15-0.13-0.34-0.25-0.63c-0.67,2.42-1.29,4.63-1.9,6.85c0.04,0.01,0.07,0.02,0.11,0.03
		c0.15-0.15,0.3-0.29,0.45-0.44c-0.18,0.37-0.39,0.73-0.54,1.11c-0.14,0.36-0.21,0.74-0.32,1.11c-0.05-0.01-0.11-0.02-0.16-0.04
		c0.14-0.7,0.33-1.4,0.41-2.11c0.05-0.42-0.08-0.85-0.13-1.29c-0.18-0.04-0.33-0.08-0.48-0.12c0.13-0.11,0.31-0.18,0.37-0.31
		c0.19-0.41,0.38-0.83,0.47-1.27c0.15-0.7,0.82-1.4,0.04-2.12c-0.02-0.02,0-0.08,0.01-0.11c0.33-0.79,0.6-1.62,1.02-2.36
		c0.35-0.62,0.65-1,0.83-1.7c0.06-0.23,0.07-0.49,0.19-0.67c0.27-0.39,0.46-0.89,0.97-1.09c0.42,0.86,0.31,1.65-0.43,3.41
		c-0.08,0.21-0.17,0.42-0.23,0.64c-0.06,0.21-0.08,0.42-0.12,0.63c0.08,0.01,0.17,0.02,0.25,0.04c-0.01-0.44,0.53-0.81,0.1-1.31
		c0.35-0.37,0.7-0.74,1.05-1.11c0.25,0.68-0.04,1.47-0.42,1.74c-0.48,0.34-0.43,0.52-0.35,0.87c-0.1,0.43-0.21,0.85-0.31,1.28
		c0.06,0.02,0.12,0.04,0.19,0.06c0.37-0.79,0.74-1.58,1.12-2.37c0.04,0.02,0.08,0.05,0.12,0.07c0.15-0.81,0.3-1.62,0.44-2.41
		c-0.3,0.29-0.55,0.54-0.8,0.78c0.58-1.86,1.7-3.53,2.06-5.5c-0.93,0.68-1.78,1.4-2.55,2.2c-0.92,0.97-1.78,2-2.64,3.02
		c-0.11,0.13-0.1,0.38-0.14,0.56c0.06,0.01,0.11,0.03,0.17,0.04c0.18-0.23,0.36-0.46,0.53-0.7c-0.51,1.09-1.12,2.12-1.61,3.19
		c-0.45,0.98-0.95,1.99-1.13,3.03c-0.24,1.35-0.23,2.74-0.25,4.12c0,0.4,0.3,0.81,0.47,1.21c0.06-0.03,0.12-0.06,0.18-0.09
		c-0.05-0.24-0.1-0.47-0.15-0.71c0.08-0.01,0.17-0.03,0.25-0.04c0.06,0.32,0.21,0.66,0.15,0.96c-0.17,0.82,0.36,1.48,0.42,2.24
		c0.01,0.07,0.12,0.14,0.19,0.21c0.38-0.54,0.97-0.6,1.17-0.12c0.26,0.6,0.43,1.25,0.63,1.88c0.09,0.3,0.16,0.61,0.24,0.91
		c0.28,1.08,0.56,2.15,0.82,3.23c0.06,0.26,0.01,0.55,0.01,0.82c0.05,0,0.11,0,0.16,0c0-0.34-0.04-0.68,0.01-1.01
		c0.14-1.01,0.32-2.02,0.47-3.03c0.09-0.65,0.17-1.29,0.24-1.94c0.15-1.4,0.3-2.81,0.45-4.21c0.08-0.72,0-1.51,0.27-2.15
		c0.25-0.6,0.01-1.05-0.03-1.58c-0.55,1.07-0.17,2.3-0.6,3.38c-0.05-0.01-0.11-0.01-0.16-0.02c0.14-1.31,0.29-2.62,0.43-3.97
		c0.24,0.1,0.36,0.15,0.56,0.23c-0.03-0.26-0.05-0.42-0.08-0.59c-0.15,0.06-0.26,0.1-0.5,0.2c0.27-1.29,0.51-2.44,0.75-3.6
		c-0.07-0.02-0.15-0.04-0.22-0.06c-0.19,0.49-0.42,0.97-0.55,1.48c-0.39,1.44-0.73,2.9-1.11,4.34c-0.03,0.12-0.29,0.18-0.45,0.27
		c-0.03,0.02-0.04,0.05-0.09,0.12c0.12,0.08,0.24,0.15,0.33,0.21c-0.35,1.57-0.69,3.13-1.03,4.71c-0.29-0.22-0.33-0.62-0.23-1.16
		c0.18-0.88,0.35-1.77,0.48-2.66c0.11-0.78,0.16-1.57,0.24-2.35c0.03-0.26,0.08-0.52,0.14-0.89c-0.86,1.02-0.57,2.26-1.05,3.29
		c0.07-0.5,0.13-1,0.2-1.5c-0.05-0.01-0.09-0.03-0.14-0.04C20.42,50.25,20.22,50.5,20.02,50.74z M36,46.06
		c0.08,0.31,0.16,0.61,0.25,0.97c0.19-0.37,0.56-0.76,0.54-1.12c-0.07-1.09,0.33-2.06,0.57-3.08c0.11-0.46,0.1-0.96,0.14-1.44
		c-0.07-0.02-0.13-0.03-0.2-0.05c-0.23,0.55-0.54,1.08-0.66,1.65c-0.15,0.74-0.1,1.53-0.21,2.28C36.4,45.56,36.15,45.81,36,46.06
		c0.12-1.03,0.25-2.08,0.37-3.12c-0.06-0.01-0.11-0.02-0.17-0.02c-0.51,0.82-1.31,1.49-1.33,2.58c-0.63,0.15-0.84,0.68-1.01,1.18
		c-0.27,0.78-0.44,1.6-0.68,2.39c-0.28,0.92,0.06,1.82,0.07,2.73c0.01,1.45-0.12,2.91-0.27,4.35c-0.04,0.44-0.33,0.85-0.51,1.27
		c-0.07-0.02-0.15-0.04-0.22-0.06c0.1-0.46,0.26-0.91,0.28-1.38c0.06-1.5,0.08-3,0.09-4.49c0-0.11-0.21-0.21-0.29-0.29
		c0.14-0.88,0.28-1.75,0.42-2.63c-0.06-0.01-0.11-0.02-0.17-0.03c-0.47,0.97-0.81,2-0.83,3.09c-0.03,1.24,0.03,2.49,0.1,3.73
		c0.07,1.3-0.15,2.55-0.42,3.81c-0.03,0.14-0.25,0.25-0.38,0.37c-0.09-0.19-0.27-0.38-0.24-0.55c0.06-0.47,0.21-0.92,0.33-1.38
		c0.13-0.51,0.15-1.01-0.22-1.6c-0.11,0.33-0.24,0.54-0.24,0.74c-0.01,0.76-0.46,1.32-0.85,1.9c-0.09,0.13-0.32,0.2-0.5,0.21
		c-0.06,0.01-0.21-0.24-0.2-0.35c0.06-0.68,0.17-1.37,0.25-2.05c0.09-0.82,0.16-1.63,0.25-2.53c-0.12,0.11-0.2,0.17-0.25,0.24
		c-0.6,0.76-0.53,1.71-0.69,2.6c-0.18,0.98-0.05,2.06-1.03,2.74c-0.11,0.08-0.15,0.26-0.22,0.4c-0.33,0.69-0.65,1.38-0.98,2.08
		c-0.06-0.02-0.12-0.05-0.17-0.07c0.03-0.27,0.06-0.53,0.09-0.89c-0.38,0.36-0.7,0.66-1.01,0.96c-0.05-0.04-0.1-0.08-0.15-0.12
		c0.05-0.22,0.08-0.45,0.14-0.68c0.18-0.69,0.62-1.27,0.59-2.07c-0.03-0.99,0.23-1.99,0.29-2.99c0.04-0.69-0.04-1.37,0.29-2.02
		c0.1-0.2,0.13-0.45,0.19-0.68c-0.06-0.02-0.12-0.03-0.18-0.05c-0.55,0.85-0.84,1.78-0.73,2.85c-0.05-0.01-0.1-0.01-0.16-0.02
		c-0.07-0.14-0.14-0.27-0.21-0.41c-0.05,0-0.11,0-0.16,0c-0.08,0.59-0.17,1.18-0.24,1.77c-0.16,1.29-0.3,2.59-0.49,3.88
		c-0.04,0.3-0.23,0.57-0.35,0.86c-0.06-0.02-0.12-0.05-0.19-0.07c0.1-0.35,0.25-0.69,0.28-1.05c0.1-1.17,0.14-2.35,0.24-3.53
		c0.06-0.72,0.13-1.45,0.32-2.15c0.23-0.87,0.59-1.7,0.88-2.55c0.03-0.09-0.05-0.21-0.11-0.44c-0.5,1.5-0.5,1.5-0.86,1.49
		c0.06-0.24,0.13-0.49,0.2-0.75c-0.05-0.02-0.1-0.05-0.16-0.07c-0.35,0.51-0.7,1.01-1.03,1.49c0.1,0.23,0.25,0.43,0.26,0.62
		c0.02,0.54-0.03,1.08-0.03,1.62c0.03,2.13-0.03,4.26-0.43,6.36c-0.11,0.6-0.32,0.82-0.77,0.63c0.52-1.59,0.7-3.23,0.48-4.9
		c-0.26,1.11-0.49,2.24-0.72,3.36c-0.03,0.13-0.06,0.34-0.13,0.37c-0.49,0.14-0.28,0.48-0.23,0.76c0.2,1.05,0.59,2.1,0.55,3.14
		c-0.04,1.27,0.08,2.5,0.24,3.75c0.07,0.51,0.04,1.03,0.11,1.53c0.14,0.95,0.33,1.88,0.48,2.83c0.04,0.29-0.04,0.59,0,0.88
		c0.19,1.36,0.39,2.72,0.6,4.08c0.08,0.54,0.24,1.07,0.3,1.61c0.04,0.33-0.11,0.67-0.05,0.99c0.2,1.17,0.4,2.34,0.7,3.48
		c0.37,1.43,0.85,2.83,1.27,4.24c0.09,0.29,0.11,0.6,0.24,0.87c0.36,0.77,0.73,1.53,1.15,2.27c0.56,0.99,1.11,2,1.77,2.92
		c0.45,0.63,1.09,1.11,1.63,1.68c0.38,0.4,0.7,0.85,1.11,1.21c1.09,0.96,2.2,1.91,3.33,2.82c0.75,0.6,1.56,1.13,2.34,1.69
		c0.59,0.42,1.18,0.84,1.75,1.27c0.46,0.34,0.87,0.75,1.35,1.05c1.46,0.93,2.94,1.85,4.43,2.74c1.12,0.67,2.25,1.32,3.41,1.91
		c1.32,0.67,2.71,1.21,4.01,1.9c2.23,1.19,4.55,2.09,7.03,2.64c2.26,0.5,4.36,0.11,6.28-1.02c1.29-0.77,2.45-1.8,3.56-2.83
		c1.88-1.73,3.24-3.89,4.65-5.99c1.57-2.33,3.01-4.75,4.46-7.16c1.58-2.63,2.6-5.46,2.88-8.54c0.09-1.01,0.1-2.02,0.24-3.02
		c0.38-2.84,0.51-5.67,0.02-8.52c-0.31-1.83-0.54-3.68-0.73-5.52c-0.19-1.87-0.24-3.76-0.45-5.63c-0.21-1.83-0.54-3.64-0.82-5.45
		c-0.04-0.22-0.13-0.44-0.2-0.68c-0.56,0.19-0.83,0.08-1-0.5c-0.37-1.29-0.82-2.55-1.29-3.81c-0.18-0.47-0.52-0.88-0.71-1.35
		c-0.56-1.38-1-2.82-1.88-4.06c-0.25-0.36-0.43-0.84-0.99-0.48c-0.13-0.17-0.22-0.41-0.37-0.47c-0.51-0.2-0.56-0.59-0.59-1.05
		c-0.06-0.92-0.75-1.34-1.5-1.73c0.32,0.93,0.67,1.84,1.17,2.67c0.79,1.31,1.73,2.53,2.5,3.85c0.31,0.53,0.36,1.22,0.53,1.84
		c-0.05,0.01-0.11,0.03-0.16,0.04c-0.52-0.98-1.03-1.98-1.57-2.95c-0.85-1.54-1.57-2.33-2.26-2.48c0.08,0.15,0.12,0.27,0.19,0.38
		c0.61,0.92,1.24,1.83,1.82,2.77c0.16,0.26,0.2,0.6,0.29,0.9c-0.04,0.01-0.09,0.02-0.14,0.03c-1.35-1.89-2.7-3.78-4.07-5.7
		c-0.07,0.03-0.19,0.09-0.32,0.16c-0.08-0.13-0.14-0.2-0.17-0.29c-0.58-1.65-1.51-3.09-2.73-4.33c-0.14-0.14-0.36-0.2-0.54-0.3
		c-0.04,0.06-0.08,0.11-0.12,0.17c0.94,1.47,2.28,2.71,2.69,4.5c-1.53-1.58-2.61-3.53-4.36-4.91c0.5,0.83,1.12,1.58,1.63,2.39
		c0.77,1.22,1.07,2.34,0.87,2.64c-0.53-0.86-1.03-1.77-1.61-2.63c-0.58-0.87-1.24-1.69-1.86-2.52c-0.07,0.05-0.15,0.09-0.22,0.14
		c0.23,0.4,0.47,0.8,0.7,1.2c0.42,0.76,0.86,1.51,1.25,2.28c0.07,0.15-0.02,0.38-0.05,0.57c-0.7-1.22-1.47-2.42-2.09-3.68
		c-0.33-0.66-0.88-0.82-1.45-1.03c-0.06-0.03-0.29,0.13-0.29,0.19c0.03,0.39,0.28,0.81-0.2,1.12c-0.02,0.01,0.08,0.25,0.17,0.35
		c0.99,1.09,1.98,2.19,3.25,2.98c0.16,0.1,0.42,0.04,0.63,0.06c0.08,0.17,0.17,0.34,0.23,0.52c0.14,0.39,0.27,0.79,0.41,1.2
		c-0.59-0.47-1.07-0.9-1.59-1.26c-0.52-0.36-1.09-0.66-1.63-1c-0.37-0.23-0.71-0.48-1.07-0.72c-0.05,0.04-0.11,0.09-0.16,0.14
		c0.13,0.4,0.28,0.8,0.39,1.21c0.12,0.42,0.21,0.85-0.02,1.43c-0.77-2.07-1.53-3.95-3.01-5.44c0.05-0.05,0.09-0.1,0.14-0.15
		c0.33,0.17,0.66,0.35,0.98,0.53c0.04-0.04,0.08-0.07,0.12-0.11c-0.22-0.4-0.44-0.79-0.66-1.19c0.04-0.04,0.07-0.09,0.11-0.13
		c0.48,0.38,0.97,0.76,1.45,1.15c0.06-0.04,0.11-0.09,0.17-0.13c-0.17-0.38-0.24-0.85-0.51-1.14c-0.87-0.92-1.82-1.77-2.81-2.72
		c-0.16,0.29-0.31,0.46-0.34,0.65c-0.12,0.69-0.03,1.35,0.25,2.02c0.36,0.88,0.89,1.74,0.59,2.77c-0.04,0.14,0.03,0.31,0.06,0.47
		c0.24,1.02,0.5,2.04,0.73,3.07c0.08,0.36,0.13,0.74,0.15,1.11c0,0.11-0.14,0.23-0.22,0.34c-0.07-0.12-0.19-0.23-0.22-0.36
		c-0.06-0.29-0.06-0.6-0.14-0.89c-0.32-1.14-0.65-2.27-0.98-3.4c-0.23-0.77-0.46-1.55-0.72-2.31c-0.1-0.3-0.41-0.36-0.51-0.05
		c-0.18,0.55-0.36,1.15-0.32,1.7c0.06,0.79,0.37,1.55,0.51,2.33c0.16,0.9,0.25,1.82,0.37,2.73c-0.24-0.1-0.44-0.24-0.47-0.42
		c-0.12-0.64-0.16-1.29-0.27-1.93c-0.1-0.58-0.25-1.16-0.38-1.73c-0.07,0.01-0.15,0.02-0.22,0.03c-0.12,1.14-0.07,2.32-0.66,3.38
		c0.61-2,0.15-3.95-0.02-5.91c-0.11,0-0.22,0-0.33-0.01c-0.06,0.59-0.12,1.18-0.17,1.78c-0.04,0.48,0.01,0.97-0.08,1.44
		c-0.22,1.09-0.53,2.17-0.74,3.26c-0.16,0.89-0.76,1.69-0.54,2.67c0.03,0.12-0.24,0.3-0.48,0.58c-0.14-0.67-0.23-1.14-0.31-1.52
		c-0.22-0.02-0.49,0.04-0.6-0.07c-0.1-0.09-0.11-0.43-0.02-0.56c0.6-0.87,0.33-1.78,0.18-2.69c-0.04-0.23-0.12-0.45-0.19-0.68
		c-0.05,0.01-0.1,0.02-0.15,0.02c-0.06,0.69,0,1.41-0.21,2.06c-0.21,0.66,0,1.46-0.69,2.11c0-0.31-0.02-0.49,0-0.66
		c0.08-0.7,0.3-1.4,0.24-2.08c-0.15-1.66-0.37-3.32-0.69-4.96c-0.1-0.54-0.59-1-0.96-1.57c-0.07,0.21-0.15,0.33-0.15,0.45
		c-0.03,0.88-0.05,1.77-0.05,2.65c0,0.17,0.09,0.34,0.12,0.51c0.17,0.91,0.42,1.82,0.47,2.73c0.06,1.23-0.18,2.45-0.54,3.64
		c-0.16,0.53-0.43,0.93-1.05,1.18c0.9-1.72,1.07-3.39,0.58-5.13c-0.62,1.34-0.74,2.77-0.8,4.22c-0.02,0.54,0.06,1.14-0.36,1.62
		c-0.75-0.57-0.74-0.56-0.42-1.35c0.08-0.2,0.06-0.44,0.08-0.72c-0.5,0.13-0.76,0.32-0.72,0.79c0.03,0.4,0.05,0.8-0.01,1.19
		c-0.05,0.32-0.22,0.62-0.34,0.93c-0.09-0.01-0.17-0.03-0.26-0.04c-0.02-0.31-0.06-0.63-0.04-0.94c0.03-0.45,0.15-0.89,0.15-1.33
		c0-0.71-0.07-1.43-0.11-2.15c-0.04-0.82-0.08-1.64-0.13-2.46c-0.01-0.14-0.09-0.28-0.13-0.41c-0.05,0-0.1,0-0.16-0.01
		c-0.08,0.36-0.15,0.73-0.23,1.09c-0.08-0.01-0.15-0.03-0.23-0.04c0.03-0.36,0.03-0.73,0.08-1.08c0.12-0.77,0.19-1.53-0.18-2.27
		c-0.06-0.13,0-0.33,0.03-0.5c0.02-0.21,0.09-0.41,0.09-0.62c0.01-0.82,0.01-1.64-0.01-2.46c-0.01-0.35-0.07-0.69-0.11-1.09
		c-0.15,0.08-0.18,0.09-0.18,0.1c-0.35,1.14-0.71,2.27-1.06,3.42c-0.02,0.08,0.06,0.21,0.11,0.31c0.08,0.16,0.21,0.3,0.24,0.47
		c0.23,1.45,0.45,2.91,0.66,4.35c0.06-0.03,0.19-0.11,0.28-0.16c0,0.42,0.02,0.81,0,1.19c-0.09,1.58-0.21,3.15-0.29,4.72
		c-0.02,0.43-0.21,0.54-0.57,0.41c-0.52-0.19-0.71,0.01-0.78,0.53c-0.07,0.47-0.19,0.96-0.84,0.97c-0.11,0-0.21,0.17-0.34,0.22
		c-0.18,0.07-0.37,0.1-0.59,0.16c0.15-3.45,0.19-6.79-0.56-10.16c-0.49,0.82-0.55,1.65-0.59,2.52c-0.06,1.29-0.21,2.59-0.37,3.87
		c-0.07,0.59,0.15,1.12,0.68,1.41c0.13,0.07,0.2,0.25,0.29,0.38c-0.15,0.06-0.32,0.2-0.45,0.16c-0.56-0.16-0.84,0.04-0.88,0.65
		c-0.36-0.18-0.58-0.29-0.35-0.72c0.15-0.29,0.14-0.68,0.13-1.03c-0.02-0.53-0.09-1.06-0.15-1.58c-0.01-0.08-0.06-0.16-0.12-0.32
		c-0.19,0.32-0.31,0.6-0.49,0.81c-0.2,0.24-0.47,0.42-0.71,0.63c-0.11-0.21-0.23-0.43-0.43-0.8c-0.05,0.44-0.11,0.76-0.12,1.07
		c-0.05,1.01-0.17,2-0.63,2.92c-0.11,0.23-0.32,0.41-0.49,0.61c-0.03-0.03-0.05-0.06-0.08-0.09c0.11-0.65,0.22-1.3,0.34-1.96
		c-0.3,0-0.53,0-0.75,0c-0.19,0.62-0.35,1.22-0.55,1.82c-0.05,0.14-0.18,0.26-0.28,0.38c-0.08-0.14-0.18-0.26-0.23-0.41
		c-0.04-0.13-0.01-0.27-0.01-0.53c-0.27,0.24-0.44,0.38-0.69,0.59c0.03-0.21,0.04-0.32,0.07-0.43c0.19-0.88,0.45-1.76,0.56-2.66
		c0.13-1.08,0.16-2.17,0.2-3.26c0.03-0.82-0.01-1.65,0.01-2.47c0.01-0.31,0.1-0.62,0.15-0.93c0.06,0,0.12-0.01,0.17-0.01
		c0.13,0.22,0.26,0.44,0.48,0.82c0.11-0.44,0.2-0.73,0.25-1.02C35.82,47.23,35.9,46.65,36,46.06z M83.48,65.63
		c0.1-0.27,0.18-0.44,0.23-0.62c0.16-0.59,0.35-1.17,0.45-1.78c0.14-0.81,0.11-1.66,0.34-2.45c0.17-0.61,0.13-0.94-0.65-1.11
		c0.39-0.28,0.66-0.47,1.05-0.74c0.04,0.33,0.1,0.51,0.09,0.69c-0.03,0.57-0.06,1.14-0.12,1.71c-0.09,0.84-0.2,1.68-0.3,2.53
		c-0.02,0.17-0.08,0.37-0.02,0.52c0.32,0.81,0.56,1.6,0.12,2.45c-0.05,0.1,0.06,0.28,0.09,0.42c0.11-0.08,0.3-0.14,0.31-0.24
		c0.09-0.49,0.13-0.99,0.19-1.48c0.16-1.25,0.32-2.5,0.49-3.75c0.13-1.01,0.64-1.97,0.36-3.03c-0.04-0.14,0.1-0.33,0.14-0.49
		c0.05-0.19,0.18-0.4,0.13-0.56c-0.1-0.26-0.31-0.49-0.47-0.73c-0.17,0.15-0.34,0.31-0.63,0.57c-0.81,0.08-2.42,2.06-2.33,3.06
		c0.19-0.07,0.38-0.15,0.69-0.27c-0.08,0.27-0.08,0.43-0.15,0.53c-0.6,0.82-0.92,1.74-1.08,2.74c-0.03,0.18-0.26,0.32-0.43,0.51
		c-0.4-0.49-0.24-0.85-0.05-1.24c0.27-0.55,0.51-1.12,0.76-1.68c-0.07-0.05-0.14-0.09-0.21-0.14c-0.2,0.26-0.4,0.53-0.63,0.82
		c-0.12-0.15-0.22-0.28-0.32-0.41c-0.06,0-0.12,0-0.18,0c-0.04,0.35-0.16,0.7-0.11,1.04c0.16,1.19,0.44,2.38,0.56,3.58
		c0.22,2.17,0.36,4.34,0.55,6.51c0.02,0.21,0.17,0.41,0.26,0.61c0.2-0.1,0.46-0.16,0.59-0.32c0.59-0.72,1.14-1.46,1.71-2.2
		c0.24-0.32,0.41-0.6-0.13-0.83c-0.13-0.05-0.22-0.32-0.24-0.5c-0.08-0.66-0.13-1.32-0.17-1.98c-0.01-0.17,0.03-0.35,0.04-0.53
		c0.02-0.32,0.07-0.63,0.04-0.94c-0.02-0.22-0.17-0.42-0.26-0.63C83.99,65.37,83.81,65.46,83.48,65.63z M48.41,34.37
		c0.06-0.03,0.13-0.05,0.19-0.08c0.5,2.36,1.74,4.36,2.87,6.44c0.1-0.39,0.13-0.76,0.1-1.12c-0.03-0.33-0.2-0.66-0.16-0.98
		c0.14-1.06-0.29-1.98-0.67-2.9c-0.36-0.88-0.76-1.73-1.16-2.59c-0.46-1.01-0.86-2.06-1.91-2.66c-0.17-0.1-0.16-0.5-0.23-0.76
		c0.23,0.02,0.48,0,0.69,0.07c0.15,0.05,0.26,0.23,0.37,0.36c0.37,0.42,0.74,0.84,1.16,1.32c0.01-0.18,0.05-0.3,0.01-0.36
		c-0.44-0.72-0.89-1.42-1.33-2.13c-0.02-0.03-0.05-0.07-0.09-0.08c-0.49-0.1-0.27-0.39-0.24-0.53c0.4-0.05,0.73,0,0.99-0.13
		c0.46-0.23,0.78-0.1,1.11,0.22c0.11,0.1,0.33,0.21,0.45,0.16c0.99-0.35,1.88-0.14,2.74,0.38c0.09,0.05,0.21,0.04,0.32,0.05
		c-0.22-0.36-0.46-0.72-0.79-0.83c-1.84-0.63-3.73-0.77-5.63-0.32c-0.49,0.11-1,0.31-1.4,0.6c-0.16,0.11-0.06,0.59-0.09,0.89
		c-0.02,0.19-0.11,0.39-0.12,0.58c-0.01,0.25-0.03,0.53,0.06,0.75c0.43,1,0.83,2.02,1.36,2.97c0.55,0.97,1.24,1.85,1.88,2.76
		c0.02,0.03,0.09,0.02,0.16,0.04C48.83,35.77,48.62,35.07,48.41,34.37z M68.14,40.09c-0.02-0.29,0.02-0.55-0.07-0.74
		c-0.35-0.69-0.76-1.34-1.12-2.02c-0.42-0.81-1.23-1.13-1.92-1.62c-0.89-0.63-1.69-1.4-2.82-1.6c-0.17-0.03-0.3-0.25-0.45-0.38
		c0.02-0.03,0.04-0.06,0.06-0.09c0.18,0.05,0.36,0.1,0.54,0.14c0.03-0.06,0.07-0.11,0.1-0.17c-0.91-0.7-1.77-1.46-2.74-2.07
		c-0.47-0.29-1.11-0.39-1.83-0.04c0.33,0.29,0.61,0.47,0.82,0.72c0.33,0.38,0.58,0.83,0.93,1.19c0.69,0.68,1.43,1.32,2.16,1.97
		c1.19,1.08,2.4,2.14,3.55,3.25c0.93,0.9,1.8,1.87,2.7,2.81c0.52,0.54,1.04,1.09,1.56,1.63c0.07-0.05,0.14-0.11,0.21-0.16
		C69.12,42.05,69.54,40.57,68.14,40.09z M32.71,31.66c-0.21,0.18-0.34,0.25-0.41,0.36c-0.28,0.46-0.6,0.91-0.78,1.4
		c-0.15,0.41-0.36,0.85,0,1.35c0.16,0.22-0.04,0.69-0.08,1.06c-0.19-0.1-0.33-0.17-0.38-0.19c-1.29,3.17-1.68,6.46-1.52,9.84
		c0.35-0.78,0.86-1.57,0.9-2.38c0.04-0.73,0.34-1.31,0.51-1.96c0.31-1.23,0.91-2.41,1.06-3.65c0.08-0.6,0.21-0.97,0.51-1.48
		c0.37-0.61,0.46-1.41,1-1.96c0.05-0.05,0.06-0.14,0.07-0.22c0.19-1.11,0.63-2.11,1.32-3.01c0.1-0.13,0.14-0.31,0.22-0.47
		c-0.05-0.05-0.11-0.1-0.16-0.15c-0.47,0.34-0.95,0.67-1.44,1.02c-0.01-0.76-0.19-0.94-0.87-1.05c-0.65-0.1-1.03,0.29-1.51,0.61
		c-0.49,0.33-0.62,0.58-0.32,1.17c0.42-0.22,0.84-0.43,1.29-0.66c-0.03-0.05,0.02,0.04,0.06,0.1c0.3-0.13,0.59-0.25,0.88-0.37
		c0.05,0.03,0.1,0.06,0.14,0.09c-0.12,0.37-0.23,0.73-0.35,1.1c-0.06-0.02-0.13-0.04-0.19-0.05C32.69,32.05,32.7,31.93,32.71,31.66z
		 M31.51,43.45c-0.07-0.02-0.13-0.05-0.2-0.07c-0.11,0.13-0.24,0.25-0.31,0.4c-0.47,0.88-0.97,1.75-1.37,2.66
		c-0.33,0.75-0.68,1.54-0.76,2.34c-0.2,1.92-0.93,3.61-1.82,5.27c-0.15,0.28-0.21,0.63-0.21,0.96c0,0.53,0.06,1.05,0.13,1.58
		c0.03,0.2,0.14,0.38,0.21,0.58c0.13-0.19,0.38-0.4,0.36-0.58c-0.07-0.74,0.04-1.4,0.51-2.01c0.25-0.32,0.4-0.72,0.58-1.09
		c0.52-1.04,1.04-2.09,1.53-3.14c0.3-0.63,0.63-1.27,0.8-1.94c0.19-0.76,0.21-1.56,0.29-2.35C31.35,45.19,31.43,44.32,31.51,43.45z
		 M38.34,48.74c0.06,0.01,0.11,0.03,0.17,0.04c0.22-0.45,0.48-0.89,0.65-1.36c0.08-0.21-0.03-0.49-0.04-0.73
		c0-0.15,0.03-0.43,0.07-0.43c0.66-0.07,0.66-0.6,0.75-1.05c0.1-0.52-0.06-1.14,0.68-1.34c0.06-0.02,0.09-0.17,0.12-0.26
		c0.42-1.27,0.33-2.57,0.3-3.87c0-0.11-0.1-0.22-0.21-0.47c-0.17,1.54-0.32,2.92-0.47,4.3c-0.07,0-0.13-0.01-0.2-0.01
		c0.09-1.66,0.18-3.32,0.28-5.04c-1.27,0.43-1.25,1.45-1.35,2.32c-0.1,0.96-0.02,1.93-0.02,2.91c-0.21-0.03-0.31-0.04-0.41-0.05
		c0.01,0.13-0.01,0.26,0.02,0.38c0.06,0.25,0.22,0.49,0.21,0.73c-0.01,0.22-0.24,0.43-0.28,0.66c-0.09,0.56-0.12,1.13-0.17,1.7
		c-0.11,0-0.21,0-0.31,0c-0.04-0.33-0.08-0.65-0.12-0.98c-0.03-0.23-0.08-0.46-0.09-0.69c-0.01-0.3,0.03-0.6,0.02-0.89
		c0-0.11-0.06-0.22-0.1-0.32c-0.32,0.6-0.54,1.16-0.72,1.74c-0.25,0.79-0.19,1.57-0.04,2.39c0.18,0.97,0.14,1.98,0.19,2.98
		c0.38-0.1,0.52-0.77,0.51-1.91c0-0.7,0.08-1.41,0.13-2.11c0.07,0,0.15-0.01,0.22-0.02C38.21,47.81,38.27,48.28,38.34,48.74z
		 M24.84,46.05c-0.06-0.04-0.11-0.08-0.17-0.12c-0.1,0.22-0.27,0.43-0.28,0.66c-0.09,1.07-0.12,2.14-0.21,3.2
		c-0.03,0.34-0.22,0.66-0.27,1c-0.11,0.8-0.17,1.61-0.25,2.41c-0.04,0.4-0.08,0.8-0.12,1.2c0.06,0.02,0.12,0.04,0.18,0.06
		c0.31-0.6,0.59-1.21,0.92-1.79c0.2-0.35,0.27-0.64,0.03-0.78c0.24-0.49,0.49-0.91,0.64-1.36c0.2-0.62,0.33-1.26,0.49-1.89
		c0.26-1.05,0.53-2.1,0.77-3.15c0.08-0.36,0.05-0.74,0.12-1.11c0.13-0.7,0.29-1.39,0.47-2.23c-0.29,0.33-0.49,0.55-0.68,0.76
		c-0.06-0.03-0.11-0.05-0.17-0.08c0.07-0.29,0.11-0.6,0.23-0.87c0.31-0.68,0.67-1.33,0.98-2.01c0.08-0.18,0.04-0.41,0.06-0.61
		c-0.09-0.02-0.17-0.04-0.26-0.06c-0.65,1.46-1.29,2.95-1.7,4.49c-0.42,1.54-0.66,3.14-0.98,4.71c-0.05,0-0.1-0.01-0.15-0.02
		C24.6,47.67,24.72,46.86,24.84,46.05z M69.64,47.33c0.31-0.77,0.18-1.45-0.27-2.02c-0.53-0.66-0.82-1.48-1.75-1.89
		c-0.6-0.26-0.96-1.1-1.42-1.68c-0.12-0.15-0.23-0.32-0.38-0.43c-0.43-0.32-0.88-0.62-1.33-0.93c0.02-0.05,0.04-0.09,0.05-0.14
		c0.5,0.12,1,0.23,1.6,0.37c-0.19-0.46-0.23-0.85-0.45-1.06c-0.73-0.72-1.54-1.36-2.3-2.06c-0.5-0.46-0.96-0.96-1.46-1.41
		c-0.72-0.64-1.47-1.26-2.28-1.94c-0.17,0.33-0.27,0.54-0.35,0.71c0.22,0.2,0.4,0.35,0.56,0.52c1.53,1.57,2.95,3.22,4.19,5.03
		c0.33,0.48,0.71,0.94,1.14,1.32c1.36,1.21,2.69,2.45,3.57,4.07C69.04,46.32,69.34,46.82,69.64,47.33z M67.41,30.91
		c-2.58-1.58-5.07-3.15-7.78-4.33c-1.96-0.86-7.8-1.93-8.67-1.54c0.7,0.28,1.12,0.7,0.79,1.56c0.35,0,0.62,0.01,0.89,0
		c0.51-0.03,1.03-0.12,1.54-0.1c0.96,0.04,1.91,0.19,2.86,0.22c1.56,0.05,2.98,0.61,4.37,1.23c1.27,0.57,2.22,1.57,3.15,2.57
		c0.18,0.19,0.46,0.36,0.7,0.37C65.93,30.94,66.61,30.91,67.41,30.91z M57.72,33.71c-0.19-0.34-0.26-0.57-0.41-0.72
		c-0.36-0.35-0.77-0.63-1.13-0.98c-0.53-0.52-1.01-1.1-1.57-1.6c-0.82-0.74-1.82-1.16-2.91-1.32c-0.21-0.03-0.45,0.09-0.67,0.14
		c0.12,0.18,0.24,0.35,0.35,0.54c0.13,0.24,0.25,0.49,0.37,0.73c0.06,0.12,0.08,0.27,0.17,0.35c0.85,0.77,1.44,1.87,2.62,2.06
		c0.02,0.29-0.04,0.54,0.05,0.63c0.59,0.58,1.22,1.13,1.83,1.69c0.04-0.04,0.09-0.07,0.13-0.11c-0.27-0.51-0.56-1.02-0.8-1.54
		c-0.04-0.09,0.11-0.27,0.17-0.41c0.09,0.1,0.18,0.19,0.26,0.29c0.04,0.06,0.04,0.14,0.06,0.25C56.69,33.71,57.11,33.71,57.72,33.71
		z M79.4,58.94c0.05-0.02,0.11-0.04,0.17-0.06c0.02-0.05,0.05-0.11,0.04-0.16c-0.24-1.84-0.48-3.68-0.74-5.52
		c-0.02-0.15-0.18-0.28-0.28-0.41c-0.18-0.24-0.43-0.46-0.53-0.73c-0.22-0.59-0.33-1.22-0.54-1.81c-0.29-0.8-0.62-1.59-0.94-2.38
		c-0.06,0.01-0.13,0.02-0.19,0.04c-0.14,0.22-0.27,0.44-0.46,0.75c-0.31-0.57-0.57-1.06-0.84-1.55c-0.06,0.02-0.12,0.04-0.18,0.06
		c0.06,0.31,0.11,0.62,0.17,0.93c-0.03,0.01-0.06,0.02-0.08,0.03c-0.25-0.33-0.51-0.65-0.76-0.98c-0.05,0.04-0.1,0.07-0.15,0.11
		c0.75,1.2,1.58,2.36,2.21,3.62c0.65,1.3,1.12,2.7,1.64,4.06C78.44,56.26,78.91,57.6,79.4,58.94z M44.95,27.95
		c-0.59-0.39-1.05-0.4-1.26,0.36c-0.38-0.5-0.75-0.3-1-0.02c-0.23,0.25-0.41,0.61-0.46,0.95c-0.11,0.82-0.13,1.65-0.19,2.6
		c0.28-0.14,0.38-0.19,0.48-0.24c0.38-0.2,0.56-0.06,0.58,0.34c0.06,1.26,0.13,2.52,0.18,3.78c0.03,0.8,0.22,1.07,1.05,1.32
		c-0.04-0.73-0.09-1.45-0.14-2.18c-0.05-0.78-0.18-1.56-0.11-2.33c0.09-0.99-0.08-1.92-0.42-2.83c-0.07-0.19-0.03-0.43-0.04-0.64
		c0.21,0.13,0.49,0.22,0.61,0.41c0.33,0.5,0.58,1.05,0.87,1.58c0.06-0.02,0.12-0.04,0.18-0.06c-0.08-0.51-0.05-1.08-0.28-1.51
		c-0.22-0.44-0.7-0.75-1.07-1.12C44.33,28.2,44.64,28.07,44.95,27.95z M74.38,35.33c0.51-0.58,0.53-0.58,0.83,0.1
		c0.2,0.45,0.4,0.89,0.58,1.34c0.5,1.25,1,2.5,1.51,3.75c0.05,0.13,0.13,0.25,0.24,0.46c0.05-0.18,0.09-0.23,0.08-0.28
		c-0.37-1.59-0.75-3.18-1.12-4.77c-0.1-0.43-0.13-0.87-0.22-1.29c-0.03-0.16-0.09-0.37-0.21-0.46c-1.12-0.78-1.71-2.14-3.01-2.71
		c-0.14-0.06-0.23-0.21-0.37-0.3c-0.23-0.14-0.47-0.27-0.71-0.4c-0.06,0.07-0.12,0.14-0.18,0.21
		C72.67,32.44,73.52,33.88,74.38,35.33z M51.34,25.88c-0.42-0.2-0.83-0.57-1.25-0.57c-1.22-0.02-2.47-0.12-3.66,0.34
		c-0.59,0.23-1.24,0.3-1.82,0.54c-0.3,0.12-0.51,0.45-0.76,0.68c1.04-0.1,1.99-0.23,2.87-0.55c0.56-0.2,0.45,0.07,0.49,0.41
		c-0.49,0.17-0.97,0.33-1.44,0.52c-0.1,0.04-0.15,0.22-0.22,0.33c0.11,0.04,0.23,0.13,0.34,0.11c1.5-0.28,2.99-0.58,4.5-0.85
		C50.92,26.73,51.22,26.44,51.34,25.88z M51.8,27.39c0.38,0.36,0.78,0.25,1.2,0.17c0.49-0.09,1.02-0.25,1.48-0.15
		c1.4,0.31,2.8,0.65,4.15,1.12c1.16,0.41,2.24,1.05,3.38,1.54c0.49,0.22,0.94,0.65,1.73,0.5c-0.54-0.6-0.92-1.21-1.47-1.57
		c-1.07-0.71-2.27-1.24-3.52-1.55c-0.79-0.19-1.63-0.23-2.44-0.31C54.81,27.01,53.31,26.77,51.8,27.39z M38.27,33.66
		c0.03,0,0.06-0.01,0.09-0.01c0.07-1.09,0.23-2.18,0.15-3.25c-0.04-0.56,0.04-0.93,0.38-1.32c0.08-0.09,0.05-0.28,0.08-0.42
		c-0.15-0.02-0.3-0.08-0.44-0.06c-0.19,0.03-0.37,0.12-0.56,0.19c-0.54,0.19-1.11,0.36-1.33,0.96c-0.55,1.48-0.43,3.07-0.75,4.59
		c-0.02,0.1,0.13,0.24,0.27,0.46c0.48-0.67,0.9-1.25,1.36-1.89c-0.2,0-0.3,0-0.53,0c0.56-0.29,0.64-0.61,0.41-1.07
		c-0.1-0.2-0.06-0.48-0.09-0.73c0.08-0.02,0.15-0.04,0.23-0.06C37.79,31.93,38.03,32.79,38.27,33.66z M47.12,25.05
		c-0.01-0.02-0.02-0.05-0.03-0.07c-0.63-0.02-1.27-0.13-1.89-0.04c-2.33,0.33-4.6,0.88-6.64,2.16c-0.47,0.29-0.67,0.65-0.79,1.12
		c0.04,0.06,0.08,0.12,0.12,0.18c0.51-0.27,1.02-0.54,1.44-0.77c0.24,0.01,0.48,0.09,0.67,0.02c1.04-0.36,2.09-0.71,3.1-1.16
		c1.1-0.49,2.17-1.02,3.37-1.24C46.69,25.2,46.9,25.11,47.12,25.05z M42.7,27.57c-0.04-0.05-0.07-0.1-0.11-0.15
		c-0.7,0.35-1.41,0.69-2.1,1.06c-0.21,0.11-0.36,0.32-0.57,0.41c-0.54,0.25-0.63,0.48-0.41,1.05c0.25,0.66,0.47,1.33,0.66,2
		c0.15,0.54,0.23,1.1,0.35,1.65c0.02,0.1,0.12,0.18,0.3,0.43c0.2-0.91,0.37-1.66,0.51-2.42c0.05-0.23,0.11-0.54,0-0.71
		c-0.1-0.15-0.41-0.17-0.64-0.25c-0.01-0.05-0.02-0.11-0.03-0.16c0.34-0.04,0.67-0.07,1.02-0.11C42.03,29.51,41.68,28.31,42.7,27.57
		z M78.28,50.3c0.58-2.63-1.97-12.91-3.39-13.44c1.47,3.36,2.21,6.81,2.69,10.49c-0.25-0.22-0.37-0.32-0.59-0.52
		C77.38,48.12,77.76,49.24,78.28,50.3z M60.95,39.24c0.07-0.05,0.15-0.11,0.22-0.16c-0.3-0.48-0.6-0.96-0.9-1.44
		c-0.14-0.23-0.29-0.45-0.41-0.69c-0.07-0.14-0.04-0.39-0.13-0.43c-0.65-0.28-0.77-0.95-1.1-1.46c-0.37-0.57-1.57-1.14-2.29-0.87
		c0.72,0.95,1.34,1.92,2.11,2.76C59.22,37.77,59.96,38.65,60.95,39.24z M25.21,40.06c0.87-1.08,1.61-1.99,2.34-2.91
		c0.27-0.34,0.57-0.75,0.25-1.15c-0.27-0.35-0.18-0.52,0.05-0.8c0.22-0.26,0.36-0.6,0.57-0.97c-0.53-0.01-1.66,0.77-1.86,1.24
		c-0.5,1.25-0.97,2.52-1.43,3.79C25.08,39.45,25.18,39.71,25.21,40.06z M50.44,43.1c-0.11-0.79-0.22-1.59-0.33-2.39
		c0.05-0.01,0.11-0.02,0.17-0.02c0.08,0.13,0.16,0.26,0.25,0.39c0.07-0.06,0.14-0.13,0.21-0.19c-0.13-0.18-0.24-0.46-0.41-0.51
		c-0.45-0.12-0.54-0.43-0.56-0.8c-0.04-1.09-0.73-1.89-1.2-2.79c-0.07-0.14-0.3-0.21-0.49-0.34c-0.02,0.14-0.05,0.2-0.04,0.25
		c0.36,1.47,0.67,2.96,1.1,4.41C49.38,41.89,49.29,42.93,50.44,43.1z M59.62,41.34c0.05-0.04,0.1-0.07,0.15-0.1
		c-0.05-0.14-0.08-0.3-0.16-0.41c-0.54-0.74-1.06-1.51-1.66-2.19c-0.6-0.68-1.3-1.26-1.94-1.89c-0.49-0.48-0.97-0.98-1.44-1.48
		c-0.28-0.31-0.52-0.65-0.77-0.98c-0.06,0.04-0.12,0.08-0.17,0.12c0.11,0.72,0.32,1.4,0.89,1.92c0.31,0.28,0.69,0.49,0.92,0.82
		c0.46,0.65,1.43,0.92,1.49,1.95c0.09-0.18,0.18-0.37,0.24-0.5C57.62,39.84,58.92,40.32,59.62,41.34z M71.19,35.26
		c-0.22-0.56-0.39-1.21-0.94-1.67c-0.72-0.6-1.47-1.15-2.17-1.78c-0.57-0.51-1.28-0.33-1.91-0.51c-0.19-0.05-0.42,0.05-0.77,0.1
		C67.43,32.75,69.3,34,71.19,35.26z M31.16,49.87c0.1,0.02,0.19,0.03,0.28,0.04c0.15-0.33,0.39-0.64,0.44-0.98
		c0.35-2.12,0.66-4.24,0.97-6.36c0.07-0.5,0.09-1.02,0.13-1.53c-0.08-0.02-0.16-0.04-0.25-0.06c-0.16,0.35-0.4,0.68-0.46,1.05
		c-0.24,1.38-0.41,2.77-0.62,4.15c-0.16,1.02-0.37,2.04-0.53,3.06C31.09,49.44,31.15,49.66,31.16,49.87z M61.25,30.52
		c0.03-0.08,0.06-0.15,0.09-0.23c-1.36-0.61-2.7-1.27-4.09-1.8c-0.61-0.23-1.32-0.2-1.98-0.29c-0.03,0.06-0.06,0.11-0.1,0.16
		c1.03,0.64,2.01,1.44,3.12,1.87C59.19,30.56,60.26,30.43,61.25,30.52z M33.92,30.45c0.46-0.34,0.92-0.68,1.44-1.06
		c-0.06,0.15-0.1,0.23-0.12,0.29c1.03-0.2,1.39-0.89,1.27-1.98c-0.56,0.29-1.09,0.56-1.62,0.85c-0.52,0.28-1.04,0.57-1.59,0.87
		c-0.04-0.23-0.06-0.33-0.09-0.49c-0.56,0.32-1.06,0.61-1.56,0.9C33.04,29.91,33.34,29.98,33.92,30.45z M42.76,54.18
		c0.07,0.02,0.13,0.04,0.2,0.06c0.1-0.27,0.15-0.73,0.32-0.77c0.53-0.15,0.34-0.5,0.32-0.79c-0.05-0.6-0.17-1.19-0.21-1.79
		c-0.09-1.15-0.14-2.31-0.23-3.46c-0.02-0.35-0.1-0.71-0.16-1.06c-0.09,0-0.18,0.01-0.26,0.01C42.58,48.98,42.77,51.58,42.76,54.18z
		 M57.21,25.06c-1.1-1.63-7.04-2.21-8.07-0.97c0.48,0.1,0.98,0.31,1.46,0.28c0.69-0.04,1.37-0.38,2.05-0.36
		c0.9,0.02,1.8,0.23,2.69,0.43C55.98,24.59,56.59,24.85,57.21,25.06z M52.27,37.47c-0.08,0.02-0.16,0.04-0.24,0.06
		c-0.01,0.22-0.08,0.45-0.04,0.67c0.15,0.77,0.39,1.53,0.49,2.31c0.1,0.75,0.59,1.48,0.2,2.28c-0.04,0.08,0.1,0.3,0.21,0.39
		c0.17,0.14,0.39,0.22,0.69,0.37c-0.07-1.08-0.02-2.14-0.24-3.13C53.12,39.4,52.64,38.45,52.27,37.47z M76.04,45.47
		c0.05-0.04,0.11-0.08,0.16-0.11c-0.75-2.06-1.78-3.96-3.05-5.75c-0.18,0.75-0.06,1.43,0.35,2.03c0.33,0.49,0.76,0.92,1.08,1.42
		c0.41,0.64,0.73,1.33,1.1,2C75.77,45.21,75.92,45.34,76.04,45.47z M39.52,31.8c-0.02,0.01-0.03,0.01-0.05,0.02c0,2.15,0,4.3,0,6.45
		c0.94-0.02,1.29-0.72,0.82-1.64c-0.12,0.32-0.23,0.64-0.4,1.12c0.12-1.12,0.35-2.09,0.29-3.03C40.11,33.73,39.75,32.77,39.52,31.8z
		 M46.43,49.15c0.15-0.7,0.52-1.47,0.43-2.18c-0.15-1.16-0.6-2.28-0.92-3.42c-0.21,0.56-0.35,1.11-0.45,1.66
		c-0.04,0.2-0.04,0.43,0.01,0.62C45.8,46.94,46.11,48.03,46.43,49.15z M35.68,34.11c0.09-1.22,0.17-2.33,0.26-3.57
		c-0.51,0.33-0.9,0.72-1.07,1.22c-0.26,0.76-1,1.47-0.36,2.34C34.92,34.11,35.3,34.11,35.68,34.11z M54.99,38.7
		c0.2,1.28,0.4,2.51,0.59,3.75c0.06,0.38,0.27,0.45,0.47,0.37c0.11-0.32,0.22-0.54,0.25-0.77c0.06-0.49,0.14-1,0.09-1.49
		c-0.04-0.42-0.25-0.82-0.42-1.22C55.8,38.92,55.55,38.58,54.99,38.7z M16.35,50.77c-0.08,0.01-0.15,0.02-0.22,0.04
		c0.05,0.49,0.1,0.98,0.16,1.52c-0.17-0.08-0.29-0.13-0.52-0.23c0.24,1.54,0.45,2.98,0.67,4.41c0.07-0.01,0.15-0.02,0.22-0.02
		C17.32,54.55,16.64,52.67,16.35,50.77z M35.6,55.4c0.1,0.02,0.19,0.05,0.29,0.07c0.19-0.6,0.48-1.2,0.54-1.82
		c0.1-1.02,0.06-2.05,0.05-3.07c0-0.4-0.08-0.81-0.13-1.21c-0.18,0.08-0.26,0.16-0.26,0.25c-0.05,0.78-0.08,1.57-0.14,2.35
		c-0.07,0.88-0.17,1.76-0.26,2.64C35.66,54.88,35.63,55.14,35.6,55.4z M45.27,31.46c-0.05,0.01-0.1,0.02-0.15,0.03
		c0,0.52-0.03,1.05,0,1.57c0.09,1.49,0.17,2.98,0.31,4.46c0.03,0.34,0,0.96,0.71,0.8C45.85,36.02,45.56,33.74,45.27,31.46z
		 M43.56,41.21c-0.09,0.15-0.2,0.28-0.27,0.44c-0.44,0.99-0.89,1.99-1.31,2.99c-0.11,0.26-0.07,0.51,0.31,0.56
		c0.33,0.04,0.45-0.08,0.47-0.42c0.02-0.28,0.13-0.56,0.25-0.83C43.38,43.08,43.62,42.18,43.56,41.21z M71.61,42.65
		c-0.43,1.51,0.21,3.83,1.09,4.04C72.8,45.73,72.17,43.32,71.61,42.65z M41.76,31.9c-0.66,1.75-1.4,3.5-0.29,5.35
		C41.57,35.46,41.66,33.68,41.76,31.9z M44.87,38.88c0.08,2,0.15,3.84,0.23,5.68C45.79,42.86,45.68,39.73,44.87,38.88z M48.2,45.09
		c0.09-0.03,0.18-0.06,0.26-0.09c0.2-1.68-0.28-3.31-0.43-5c-0.16,0.09-0.33,0.23-0.32,0.35c0.05,1.37,0.12,2.75,0.21,4.12
		C47.95,44.68,48.11,44.88,48.2,45.09z M27.29,33.12c1.61-0.28,2.87-1.04,3.58-2.67C29.42,31.09,28.45,32.23,27.29,33.12z
		 M72.49,39.14c0.06-0.03,0.12-0.06,0.18-0.09c-0.24-0.62-0.47-1.24-0.74-1.85c-0.03-0.07-0.31-0.13-0.38-0.08
		c-0.27,0.2-0.57,0.43-0.73,0.71c-0.08,0.13,0.13,0.42,0.2,0.64c0.02,0.07,0.02,0.16,0.06,0.23c0.27,0.45,0.55,0.9,0.88,1.44
		c0.46-1.03-0.59-1.5-0.48-2.47C71.86,38.23,72.17,38.68,72.49,39.14z M39.29,49.15c-0.57,1.12-1.45,2.15-1.1,3.58
		C39.38,51.75,39.17,50.4,39.29,49.15z M32.88,45.7c0.21-0.26,0.55-0.5,0.59-0.78c0.21-1.41,0.35-2.84,0.5-4.26
		c0.02-0.18-0.02-0.37-0.03-0.55c-0.06-0.02-0.13-0.04-0.19-0.07c-0.06,0.09-0.17,0.18-0.19,0.29
		C33.34,42.09,33.12,43.85,32.88,45.7z M22.86,45.84c-0.73,0.69-1.31,3.57-0.86,4.33C22.2,48.68,23.04,47.39,22.86,45.84z
		 M51.74,34.42c0.21,0.4,0.4,0.81,0.64,1.19c0.12,0.18,0.39,0.25,0.5,0.43c0.32,0.5,0.58,1.03,0.88,1.54
		c0.04,0.07,0.14,0.1,0.23,0.17C54.11,36.7,53.15,35.44,51.74,34.42z M23.31,37.19c1.68-1.21,3.26-2.34,4.84-3.47
		c-1.67,0.77-3.14,1.85-4.6,2.95C23.43,36.76,23.4,36.98,23.31,37.19z M27.02,53.31c0.59-0.84,1.21-2.89,1.12-3.47
		C27.37,50.9,27.08,52.07,27.02,53.31z M61.9,32.08c-0.04,0.07-0.07,0.14-0.1,0.2c0.7,0.56,1.4,1.12,2.23,1.77
		c-0.08-0.45-0.04-0.92-0.22-1.04C63.21,32.63,62.54,32.38,61.9,32.08z M42.5,39.85c0.21-0.85,0.76-1.64,0.1-2.47
		C42.22,37.76,42.15,39.32,42.5,39.85z M32.38,48.11c0.1,0.03,0.2,0.05,0.31,0.08c0.2-0.63,0.41-1.25,0.59-1.89
		c0.04-0.13-0.05-0.3-0.08-0.46c-0.13,0.1-0.36,0.17-0.39,0.3C32.64,46.79,32.52,47.46,32.38,48.11z M29.14,33.9
		c0.52,0.39,0.67-0.05,0.89-0.3c0.12-0.14,0.21-0.32,0.35-0.45c0.24-0.22,0.5-0.41,0.83-0.67C29.96,32.28,29.76,33.29,29.14,33.9z
		 M47.77,46.03c0,0.85,0,1.69,0,2.67C48.33,47.87,48.38,46.49,47.77,46.03z M70.53,36.08c-0.49-0.6-0.75-1.46-1.79-1.61
		C69.15,35.3,69.66,35.88,70.53,36.08z M35.21,40.17c-0.12-0.02-0.23-0.05-0.35-0.07c-0.14,0.83-0.28,1.65-0.42,2.48
		c0.08,0.01,0.16,0.03,0.23,0.04C35.39,41.92,34.91,40.97,35.21,40.17z M37.07,41.11c0.56-0.4,0.86-2.21,0.5-2.92
		C37.4,39.22,37.25,40.1,37.07,41.11z M32.85,37.17c-0.11,0.85-0.21,1.59-0.31,2.34C33.3,38.27,33.37,37.74,32.85,37.17z M51.84,41
		c0.05,0.76,0.1,1.52,0.15,2.29C52.57,42.6,52.5,41.68,51.84,41z M34.03,45.58c0.72-0.69,0.93-2.07,0.37-2.37
		C34.28,43.97,34.16,44.72,34.03,45.58z M42.65,33c-0.3,0.46-0.36,0.87-0.34,1.28c0.02,0.39,0.06,0.81,0.54,1.2
		C42.77,34.6,42.72,33.9,42.65,33z M43.5,37.32c-0.07,0.01-0.14,0.01-0.21,0.01c0.02,0.49,0.04,0.99,0.08,1.48
		c0.01,0.07,0.17,0.16,0.27,0.18c0.06,0.01,0.19-0.11,0.2-0.17C43.86,38.29,43.98,37.73,43.5,37.32z M40.12,47.19
		c0.24-0.8,0.45-1.46,0.66-2.14C40.13,45.24,39.7,46.46,40.12,47.19z M55.64,37.8c-0.34-0.28-0.58-0.47-0.81-0.66
		c-0.07,0.12-0.2,0.25-0.19,0.37c0.03,0.3,0.12,0.59,0.19,0.89C55.06,38.23,55.29,38.06,55.64,37.8z M53.96,45.5
		c-0.77,0.49-0.89,1.29-0.37,1.86C53.71,46.76,53.82,46.18,53.96,45.5z M27.21,38.24c-0.23,0.31-0.38,0.73-0.68,0.88
		c-0.55,0.29-0.25,0.74-0.43,1.09C26.59,40.03,27.21,38.84,27.21,38.24z M62.07,39.44c0.15-0.77-0.37-1.56-1.03-1.76
		C61.42,38.32,61.75,38.88,62.07,39.44z M17.45,45.36c0.09,0.07,0.17,0.13,0.26,0.2c0.49-0.7,0.98-1.41,1.47-2.11
		c-0.05-0.03-0.1-0.07-0.14-0.1C18.51,44.02,17.98,44.69,17.45,45.36z M26.56,40.52c-0.74,0.48-1.14,1.57-0.87,2.08
		C25.96,41.95,26.23,41.31,26.56,40.52z M26.92,50.4c-0.8,0.52-1,1.2-0.71,2.05C26.43,51.81,26.65,51.17,26.92,50.4z M46.06,40.98
		c0.52-0.53,0.46-1.22-0.29-1.65C45.87,39.86,45.96,40.39,46.06,40.98z M46.49,42.08c-0.36,0.64-0.21,1.27,0.33,1.45
		c0.07-0.25,0.13-0.51,0.19-0.73C46.83,42.55,46.65,42.31,46.49,42.08z M18.02,55c-0.06,0-0.12-0.01-0.18-0.01
		c0.06,0.54,0.1,1.08,0.2,1.61c0.03,0.14,0.29,0.23,0.54,0.41C18.36,56.23,18.19,55.61,18.02,55z M55.59,29.29
		c0.54,0.9,1.19,1.2,1.71,1c-0.29-0.16-0.59-0.32-0.89-0.49C56.13,29.63,55.86,29.46,55.59,29.29z M20,62.89
		c0.1-0.02,0.2-0.03,0.3-0.05c-0.16-0.71-0.33-1.42-0.49-2.13c-0.06,0.01-0.11,0.02-0.17,0.03C19.76,61.45,19.88,62.17,20,62.89z
		 M64.92,32.93c0.04-0.09,0.08-0.17,0.12-0.26c-0.58-0.26-1.16-0.52-1.75-0.77c-0.03,0.07-0.06,0.13-0.09,0.2
		C63.77,32.37,64.35,32.65,64.92,32.93z M27.83,31.92c-0.81,0.03-1.22,0.6-1.63,1.18C26.74,32.7,27.28,32.31,27.83,31.92z
		 M38.51,38.96c0.06,0.01,0.12,0.02,0.18,0.02c0.11-0.57,0.5-1.11,0.02-1.74C38.64,37.81,38.57,38.38,38.51,38.96z M18.53,58.75
		c0-0.52,0-1,0-1.57C17.98,57.99,17.98,58.38,18.53,58.75z M51.95,33.32c0.35,0.44,0.66,0.85,1.09,1.39
		C52.76,33.51,52.55,33.23,51.95,33.32z M37.43,28.6c0.04-0.48,0.08-0.94,0.13-1.53C36.94,27.94,36.91,28.39,37.43,28.6z
		 M47.27,43.08c-0.03,0-0.05,0.01-0.07,0.01c-0.11,0.34-0.25,0.67-0.32,1.01c-0.03,0.13,0.1,0.29,0.15,0.44
		c0.11-0.08,0.32-0.16,0.32-0.25C47.35,43.89,47.3,43.48,47.27,43.08z M62.52,39.49c-0.06,0.05-0.11,0.09-0.17,0.14
		c0.33,0.4,0.65,0.8,0.98,1.2c0.08-0.07,0.16-0.14,0.25-0.21C63.22,40.23,62.87,39.86,62.52,39.49z M46.79,39.32
		c0.07-0.02,0.14-0.04,0.21-0.06c-0.04-0.27-0.09-0.53-0.13-0.79c-0.04-0.26-0.09-0.52-0.13-0.78c-0.09,0.02-0.19,0.04-0.28,0.06
		C46.57,38.27,46.68,38.79,46.79,39.32z M62.9,41.82c-0.23-0.32-0.38-0.58-0.57-0.78c-0.09-0.09-0.27-0.11-0.41-0.13
		c-0.04,0-0.16,0.17-0.14,0.2c0.07,0.11,0.17,0.2,0.28,0.26C62.29,41.51,62.54,41.62,62.9,41.82z M31.12,33.16
		c-0.05-0.04-0.09-0.08-0.14-0.12c-0.26,0.32-0.53,0.64-0.79,0.96C30.95,34.09,30.91,33.52,31.12,33.16z M29.7,52.19
		c-0.07-0.02-0.14-0.04-0.22-0.06c-0.14,0.49-0.27,0.97-0.41,1.46c0.08,0.02,0.17,0.05,0.25,0.07
		C29.45,53.17,29.57,52.68,29.7,52.19z M42.63,41.53c0.06,0.02,0.12,0.04,0.19,0.06c0.15-0.38,0.31-0.77,0.46-1.15
		C42.91,40.74,42.41,40.97,42.63,41.53z M50.96,32.51c0.07-0.03,0.15-0.06,0.22-0.09c-0.16-0.31-0.32-0.62-0.48-0.93
		C50.21,32.09,50.77,32.22,50.96,32.51z M41.55,40.96c0.06-0.01,0.12-0.02,0.18-0.03c-0.03-0.58-0.06-1.16-0.08-1.74
		c-0.06,0-0.12,0.01-0.19,0.02C41.49,39.79,41.52,40.37,41.55,40.96z M34.95,55.7c-0.54,0.44-0.6,0.99-0.22,1.34
		C34.8,56.61,34.86,56.21,34.95,55.7z M46.3,36.82c0.34-0.66,0.26-1.07-0.15-1.41C46.2,35.9,46.25,36.36,46.3,36.82z M41.59,37.8
		c-0.11,0.01-0.22,0.03-0.33,0.05c0.06,0.32,0.12,0.63,0.19,0.95c0.08-0.01,0.17-0.03,0.25-0.04C41.66,38.44,41.63,38.12,41.59,37.8
		z M42.05,48.97c-0.07,0-0.15-0.01-0.22-0.01c-0.16,0.31-0.31,0.63-0.04,0.93c0.07,0,0.14,0,0.21,0
		C42.01,49.59,42.03,49.28,42.05,48.97z"/>
	<path d="M22.33,77.75c-0.74-0.71-1.42-1.4-1.75-2.36c-0.29-0.85-0.7-1.65-1.05-2.48c-0.06-0.15-0.18-0.28-0.19-0.43
		c-0.01-0.17,0.01-0.44,0.11-0.51c0.12-0.08,0.41-0.04,0.53,0.07c0.33,0.3,0.81,0.48,0.53,1.18c-0.15,0.36,0.14,0.92,0.28,1.37
		c0.1,0.33,0.28,0.64,0.45,0.94c0.34,0.57,0.71,1.12,1.03,1.7C22.36,77.36,22.32,77.58,22.33,77.75z"/>
	<path d="M43.08,66.39c0.59,0.51,1.07,0.9,1.51,1.32c0.15,0.15,0.28,0.37,0.32,0.57c0.14,0.71,0.26,1.43,0.34,2.15
		c0.05,0.47,0.02,0.95-0.01,1.42c0,0.05-0.36,0.15-0.4,0.1c-0.23-0.26-0.51-0.55-0.58-0.87c-0.21-1.02-1.09-1.48-1.71-2.13
		c-0.24-0.25-0.9-0.12-1.37-0.09c-0.07,0-0.19,0.43-0.16,0.65c0.05,0.41,0.24,0.8,0.3,1.2c0.15,1-0.15,1.86-0.88,2.58
		c-0.64,0.64-1.37,1.15-2.25,1.39c-0.28,0.08-0.57,0.11-0.86,0.14c-0.52,0.05-1.06,0-1.56,0.13c-0.91,0.24-1.81,0.2-2.64-0.16
		c-0.46-0.21-0.82-0.7-1.15-1.13c-0.33-0.45-0.56-0.98-0.84-1.47c-0.08-0.13-0.19-0.25-0.35-0.45c-0.73,0.58-1.44,1.13-2.13,1.71
		c-0.34,0.29-0.63,0.65-1,0.9c-0.15,0.11-0.45,0.01-0.68,0c0.06-0.17,0.08-0.38,0.2-0.51c0.53-0.56,1.08-1.1,1.68-1.7
		c-0.65-0.2-0.7-0.16-1.05,0.71c-0.19-0.07-0.51-0.08-0.57-0.21c-0.09-0.2-0.06-0.51,0.05-0.71c0.53-1,1.24-1.85,2.16-2.53
		c0.33-0.24,0.61-0.55,0.89-0.84c0.72-0.75,1.68-1.03,2.63-1.26c1.5-0.37,3.04-0.61,4.56-0.94c0.79-0.17,1.58-0.4,2.36-0.6
		c0.07-0.02,0.16-0.03,0.23-0.02C41.18,65.97,42.22,66.2,43.08,66.39z M34.88,69.29c-0.73,0.37-1.29,0.68-1.87,0.95
		c-0.75,0.35-1.05,0.87-0.75,1.56c0.56,1.27,1.62,2.05,2.95,2.21c0.9,0.11,1.86-0.13,2.77-0.3c1.91-0.36,2.74-2.69,1.88-4.41
		c-0.2-0.4-1.07-0.67-1.18-0.38c-0.13,0.35-0.52,0.67-0.22,1.13c0.06,0.09,0.05,0.3-0.02,0.4c-0.46,0.66-0.93,1.31-1.43,1.94
		c-0.11,0.14-0.37,0.19-0.57,0.21c-0.83,0.1-1.86-0.99-2.15-1.56c-0.25-0.5-0.1-0.9,0.18-1.29C34.56,69.63,34.67,69.52,34.88,69.29z
		 M43.39,68.08c0.04-0.08,0.07-0.16,0.1-0.23c-0.26-0.17-0.51-0.38-0.79-0.51c-0.53-0.24-1.07-0.6-1.61-0.62
		c-0.97-0.05-1.97,0.02-2.91,0.22c-1,0.21-1.96,0.64-2.94,0.99c-0.13,0.05-0.23,0.2-0.34,0.31c0.03,0.05,0.06,0.11,0.08,0.16
		c0.85-0.2,1.71-0.38,2.55-0.61c0.78-0.21,1.53-0.67,2.34-0.12c0.06,0.04,0.15,0.06,0.23,0.05C41.21,67.63,42.33,67.43,43.39,68.08z
		 M29.02,71.77c1.85-1.15,3.71-2.3,5.56-3.45C32.39,68.97,30.49,70.07,29.02,71.77z M31.3,69.11c0.93-0.42,1.76-0.8,2.67-1.21
		C33.21,67.73,31.63,68.43,31.3,69.11z"/>
	<path d="M71.69,58.04c-0.89,0.11-1.79,0.14-2.65,0.34c-0.83,0.2-1.75,0.15-2.47,0.81c1.07-0.02,2.09-0.48,3.2-0.17
		c1.04,0.3,2.14,0.39,3.38,0.59c-1.04,0.6-1.97,0.72-3.09,0.49c0.18,0.67,0.3,1.26,0.5,1.82c0.43,1.26,0.04,2.37-0.58,3.45
		c-0.06,0.11-0.19,0.21-0.31,0.26c-0.41,0.18-0.85,0.3-1.24,0.51c-0.72,0.37-1.47,0.51-2.29,0.52c-0.64,0.01-1.27,0.23-1.91,0.32
		c-0.88,0.12-1.74,0.13-2.58-0.31c-1.33-0.69-1.94-1.84-2.24-3.23c-0.15-0.73-0.22-0.74-0.9-0.45c-0.86,0.36-1.31,1.01-1.61,1.86
		c-0.25,0.74-0.61,1.45-0.96,2.15c-0.08,0.16-0.37,0.24-0.57,0.28c-0.05,0.01-0.22-0.3-0.22-0.46c0.01-0.42,0.17-0.87-0.35-1.14
		c-0.06-0.03-0.06-0.27-0.01-0.39c0.25-0.6,0.56-1.18,0.78-1.79c0.14-0.38,0.15-0.79,0.26-1.18c0.07-0.26,0.16-0.6,0.35-0.72
		c0.99-0.61,1.98-1.23,3.04-1.72c1.01-0.47,2.07-0.86,3.14-1.17c1.11-0.31,2.26-0.55,3.41-0.68c1.47-0.17,2.96-0.23,4.43-0.29
		c0.51-0.02,1.01,0.11,1.51,0.17C71.7,57.95,71.69,58,71.69,58.04z M63.94,61c-0.01-0.06-0.02-0.12-0.03-0.18
		c-0.46,0.02-0.95-0.03-1.38,0.1c-0.6,0.18-1.16,0.5-1.75,0.74c-0.35,0.14-0.5,0.37-0.42,0.74c0.1,0.48,0.12,1,0.3,1.44
		c0.55,1.3,1.15,2.2,2.79,2.15c1.08-0.04,2.15-0.21,3.23-0.23c0.85-0.02,1.51-0.38,2.15-0.85c0.16-0.12,0.29-0.31,0.37-0.49
		c0.44-1.05,0.25-2.13,0.07-3.18c-0.08-0.44-0.47-1.11-0.81-1.18c-0.65-0.12-1.37,0.12-2.06,0.22c-0.01,0-0.02,0.07-0.03,0.11
		c0.05-0.02,0.09-0.05,0.15-0.07c0.26,0.5,0.48,1.03,0.8,1.49c0.52,0.72,0.04,1.08-0.41,1.49c-0.04,0.04-0.07,0.09-0.11,0.15
		c-0.57,0.8-1.09,1.01-2.04,0.79c-0.25-0.06-0.5-0.13-0.75-0.17c-0.88-0.12-1.53-0.96-1.41-1.84c0.1-0.7,0.41-0.99,1.1-1.08
		C63.79,61.12,63.86,61.04,63.94,61z M66.34,59.33c-0.01-0.06-0.02-0.12-0.03-0.17c-0.47-0.07-0.95-0.26-1.39-0.18
		c-0.89,0.16-1.76,0.44-2.62,0.73c-1.71,0.57-3.36,1.26-4.85,2.3c-0.46,0.32-0.48,0.34-0.16,0.76
		C59.98,60.81,63.11,59.95,66.34,59.33z"/>
	<path d="M63.37,93.65c-0.14-0.18-0.29-0.37-0.5-0.66c0.39,0.03,0.64,0.04,0.89,0.07c1.25,0.14,2.23-0.58,3.29-1.03
		c0.6-0.26,1.17-0.59,1.75-0.88c0.13-0.06,0.28-0.07,0.42-0.1c0.02,0.05,0.04,0.11,0.07,0.16c-0.97,0.59-1.93,1.18-2.9,1.78
		c0.01,0.03,0.02,0.06,0.04,0.08c0.24-0.03,0.48-0.06,0.72-0.09c0.05,0.07,0.1,0.13,0.14,0.2c-0.91,0.98-1.79,1.99-2.74,2.94
		c-0.35,0.35-0.85,0.55-1.28,0.81c-1.19,0.72-2.36,1.45-3.56,2.13c-0.27,0.15-0.66,0.13-0.99,0.12c-1.16-0.05-2.19,0.18-3.15,0.92
		c-0.5,0.39-1.19,0.6-1.83,0.73c-1.61,0.32-3.23,0.56-4.85,0.81c-0.21,0.04-0.45-0.03-0.67-0.05c-0.01-0.1-0.02-0.19-0.03-0.29
		c0.46-0.13,0.92-0.26,1.45-0.41c-0.34-0.19-0.62-0.35-0.94-0.53c-0.15,0.12-0.31,0.24-0.53,0.41c-0.39-0.77-0.98-0.54-1.58-0.37
		c-0.39,0.11-0.8,0.17-1.21,0.21c-0.38,0.04-0.53-0.19-0.53-0.51c1-0.26,1.99-0.5,2.96-0.79c0.27-0.08,0.53-0.27,0.73-0.46
		c0.42-0.39,0.73-0.92,1.2-1.23c1.51-1.04,3.11-1.91,4.95-2.21c0.28-0.04,0.58,0.07,0.87,0.12c0.5,0.09,1.01,0.21,1.51,0.29
		c0.08,0.01,0.23-0.09,0.25-0.17c0.27-1.04,1.15-1.31,2.01-1.62c0.15-0.05,0.28-0.14,0.42-0.22c0.73-0.38,1.45-0.77,2.19-1.13
		c0.16-0.08,0.36-0.04,0.58,0.05c-1.27,0.75-2.53,1.51-3.9,2.33C59.2,95.3,62.93,94.09,63.37,93.65z M65.88,93.38
		c-0.24,0.19-0.38,0.38-0.57,0.45c-0.77,0.31-1.55,0.6-2.33,0.86c-1.46,0.48-2.94,0.89-4.4,1.39c-1.04,0.36-2.06,0.82-3.08,1.22
		c-0.87,0.35-1.89,0.28-2.63,0.98c-0.13,0.12-0.23,0.28-0.34,0.42c0.16,0.12,0.31,0.28,0.49,0.34c1.12,0.34,2.24,0.05,3.36-0.06
		c1.51-0.15,3.03-0.32,4.32-1.25c0.24-0.18,0.46-0.38,0.69-0.57c-0.02-0.06-0.05-0.11-0.07-0.16c-0.55,0.12-1.09,0.23-1.64,0.34
		c-0.01-0.05-0.02-0.11-0.03-0.16c1.15-0.46,2.35-0.82,3.44-1.38C64.83,94.88,65.86,93.94,65.88,93.38z M55.3,96.56
		c-0.02-0.07-0.04-0.13-0.07-0.2c-1-0.18-1.91,0.04-2.75,0.65c-0.34,0.25-0.73,0.44-1.08,0.67c-0.23,0.15-0.45,0.32-0.67,0.48
		c0.05,0.08,0.09,0.15,0.14,0.22C52.34,97.77,53.82,97.17,55.3,96.56z M49.17,99.66c-0.04,0.11-0.09,0.22-0.13,0.33
		c0.09,0.04,0.19,0.1,0.27,0.1c1.1-0.06,2.2-0.13,3.29-0.21c0.06,0,0.12-0.13,0.17-0.2c-0.08-0.06-0.17-0.17-0.26-0.17
		c-0.41-0.04-0.83-0.08-1.24-0.06C50.58,99.49,49.88,99.59,49.17,99.66z"/>
	<path d="M70.74,54.5c-0.06,0.2-0.1,0.37-0.16,0.57c0.18,0.08,0.35,0.16,0.52,0.23c0,0.06,0.01,0.12,0.01,0.17
		c-0.43,0.03-0.86,0.05-1.28,0.11c-0.29,0.05-0.57,0.2-0.87,0.25c-0.42,0.07-0.85,0.13-1.26,0.1c-1-0.08-1.99-0.19-2.98-0.33
		c-0.27-0.04-0.52-0.26-0.78-0.37c-0.32-0.13-0.66-0.35-0.96-0.32c-1.03,0.12-2.06,0.29-3.07,0.52c-0.9,0.2-1.42,0.99-1.99,1.62
		c-0.77,0.84-1.44,1.77-2.15,2.67c-0.21,0.27-0.4,0.65-0.78,0.42c-0.15-0.09-0.1-0.5-0.14-0.81c-0.17,0.02-0.44,0.06-0.88,0.12
		c0.15-0.33,0.2-0.61,0.36-0.76c1.07-1.04,2.16-2.05,3.24-3.09c0.76-0.74,1.55-1.44,2.53-1.85c0.59-0.24,1.24-0.33,1.85-0.54
		c0.85-0.28,1.56-0.02,2.36,0.31c0.83,0.35,1.8,0.37,2.72,0.5C68.24,54.2,69.47,54.34,70.74,54.5z M62.34,54.42
		c-0.48-0.63-0.75-0.6-1.08,0.14C61.63,54.51,61.94,54.47,62.34,54.42z"/>
	<path d="M39.05,62.28c-0.19,0.09-0.36,0.24-0.56,0.28c-1.23,0.23-2.46,0.44-3.69,0.66c-0.93,0.16-1.85,0.38-2.78,0.48
		c-0.76,0.09-1.53,0.01-2.29,0.08c-0.65,0.06-1.3,0.2-1.93,0.38c-0.18,0.05-0.38,0.37-0.41,0.58c-0.16,1.19-0.25,2.4-0.4,3.59
		c-0.04,0.35-0.18,0.69-0.31,1.16c-0.15-0.19-0.18-0.28-0.24-0.3c-0.89-0.38-0.85-1.12-0.77-1.91c0.12-1.1,0.17-2.2,0.27-3.3
		c0.03-0.4,0.01-0.83,0.61-0.88c0.17-0.01,0.31-0.29,0.48-0.41c0.3-0.21,0.67-0.59,0.94-0.54c0.72,0.14,1.33-0.17,1.99-0.25
		c0.46-0.06,0.94,0.04,1.4,0.1c0.75,0.11,1.46,0.17,2.18-0.19c0.8-0.4,1.67-0.36,2.55-0.26c0.66,0.07,1.34,0.02,1.99,0.12
		c0.34,0.04,0.65,0.28,0.97,0.42C39.07,62.16,39.06,62.22,39.05,62.28z"/>
	<path d="M73.42,66.01c-0.19,0.12-0.34,0.23-0.5,0.29c-1.31,0.53-2.62,1.04-3.86,1.77c-0.86,0.5-1.98,0.59-3,0.75
		c-0.69,0.11-1.41-0.02-2.11,0.02c-1,0.07-1.99,0.25-2.99,0.29c-0.96,0.04-1.94,0.01-2.9-0.09c-0.95-0.1-1.89-0.31-2.83-0.49
		c-0.09-0.02-0.17-0.13-0.22-0.17c0.32-0.2,0.6-0.4,0.9-0.56c0.14-0.07,0.34-0.13,0.49-0.1c0.98,0.23,1.94,0.51,2.92,0.71
		c0.52,0.11,1.06,0.07,1.59,0.1c0.01-0.05,0.02-0.1,0.02-0.15c-0.49-0.14-0.99-0.28-1.48-0.42c0-0.05,0-0.09,0-0.13
		c0.37,0.02,0.73,0.03,1.1,0.06c1.66,0.14,3.33,0.31,4.99,0.43c0.61,0.04,1.22-0.03,1.83-0.06c0.13-0.01,0.27-0.07,0.38-0.14
		c0.37-0.27,0.72-0.58,1.1-0.83c1.23-0.78,2.47-1.55,3.72-2.31c0.46-0.28,0.95-0.53,1.42-0.79c0.04,0.05,0.08,0.11,0.12,0.16
		c-0.46,0.36-0.91,0.72-1.44,1.14C72.92,65.68,73.13,65.81,73.42,66.01z"/>
	<path d="M30.67,77.82c-0.63,0.06-1.12,0.12-1.61,0.12c-0.14,0-0.28-0.17-0.43-0.26c0.09-0.13,0.15-0.31,0.28-0.39
		c0.31-0.19,0.62-0.26,1.04-0.21c1.26,0.13,2.49,0.39,3.8-0.01c1.43-0.44,2.89-0.79,4.3-1.33c0.04-0.01,0.08-0.04,0.11-0.03
		c0.68,0.24,1.05-0.26,1.51-0.59c0.49-0.36,1.03-0.65,1.56-0.96c0.82-0.47,1.51-1.2,2.58-1.32c-0.02,0.47-0.11,0.87-0.6,1.04
		c-0.48,0.17-1.01,0.27-1.44,0.53c-0.67,0.41-1.31,0.88-1.9,1.41c-0.29,0.26-0.55,0.42-0.93,0.37c-0.37-0.05-0.58,0.12-0.82,0.42
		c-0.52,0.66-1.32,0.92-2.12,1.06c-1.12,0.19-2.26,0.33-3.4,0.43c-0.58,0.05-1.16,0.02-1.74-0.03
		C30.77,78.06,30.67,77.83,30.67,77.82z"/>
	<path d="M56.85,80.27c0.04-0.32,0.05-0.45,0.07-0.62c0.1,0.06,0.18,0.09,0.23,0.14c0.77,0.85,1.55,1.69,2.3,2.55
		c0.32,0.37,0.6,0.53,1.04,0.19c0.12-0.09,0.32-0.08,0.53-0.13c-0.63,1.55-1.96,2.14-3.22,2.82c-0.29,0.15-0.5,0.44-0.78,0.62
		c-0.16,0.11-0.37,0.14-0.56,0.2c-0.05-0.21-0.21-0.5-0.13-0.63c0.26-0.42,0.35-0.95,0.92-1.2c0.51-0.23,0.92-0.66,1.4-0.97
		c0.2-0.12,0.47-0.15,0.72-0.22c-0.36-0.46-0.67-0.87-0.99-1.26c-0.04-0.05-0.15-0.08-0.22-0.07c-0.9,0.18-1.23-0.48-1.65-1.07
		c-0.37-0.52-0.87-0.96-1.25-1.48c-0.24-0.33-0.37-0.73-0.55-1.11c-0.35-0.75-0.7-1.5-1.02-2.26c-0.06-0.13-0.01-0.3-0.01-0.46
		c0.14,0.07,0.36,0.09,0.42,0.2c0.38,0.74,0.71,1.52,1.09,2.26C55.65,78.61,56.04,79.47,56.85,80.27z"/>
	<path d="M53.09,87.96c-0.1,0.07-0.24,0.24-0.31,0.21c-0.83-0.29-1.62,0.44-2.48,0.05c-0.36-0.16-0.87,0.03-1.31,0.02
		c-0.2,0-0.4-0.08-0.76-0.16c0.35-0.23,0.53-0.35,0.72-0.47c-0.25-0.83-1.07,0.3-1.33-0.41c0.53-0.81,1.27-0.69,2.07-0.55
		c0.74,0.14,1.52,0.17,2.27,0.13c0.41-0.02,0.62,0.01,0.71,0.45C52.73,87.47,52.92,87.67,53.09,87.96z"/>
	<path d="M48.06,77.68c1.05,0.35,1.2,1.07,1.26,1.92c0.05,0.78,0.29,1.55,0.37,2.33c0.07,0.72,0.07,1.46,0.01,2.18
		c-0.03,0.31-0.29,0.6-0.45,0.9c-0.06-0.01-0.12-0.03-0.19-0.04c0.06-0.4,0.13-0.8,0.17-1.21c0.02-0.23,0.03-0.48-0.02-0.71
		c-0.11-0.59-0.2-1.2-0.4-1.76c-0.3-0.86,0.12-1.87-0.62-2.65C48.03,78.46,48.11,78.05,48.06,77.68z"/>
	<path d="M43.23,105.02c-0.73,0.45-2.05-0.1-2.2-0.77c-0.02-0.1,0.17-0.3,0.29-0.34c0.14-0.05,0.33,0.04,0.52,0.07
		c-0.46-0.99-1.12-1.7-2.29-2.05c0.3-0.16,0.48-0.34,0.62-0.32c0.74,0.14,1.57,0.01,2.15,0.66c0.06,0.07,0.18,0.16,0.17,0.23
		c-0.04,0.6-0.11,1.19-0.18,1.89C42.53,104.53,42.85,104.76,43.23,105.02z"/>
	<path d="M58.19,107.84c-0.29,0.09-0.48,0.19-0.67,0.19c-0.27-0.01-0.57-0.04-0.8-0.17c-0.84-0.46-1.65-0.96-2.48-1.45
		c-0.18-0.11-0.37-0.21-0.54-0.34c-0.13-0.1-0.23-0.25-0.3-0.45c1.08,0.11,2.09,0.23,2.92,1.06
		C56.78,107.13,57.43,107.38,58.19,107.84z"/>
	<path d="M72.06,85.61c-0.62-0.05-1.24-0.11-1.86-0.15c-0.15-0.01-0.31,0.05-0.46,0.07c-0.15,0.02-0.33,0.1-0.46,0.06
		c-0.54-0.2-1.07-0.44-1.68-0.7c0.16-0.12,0.29-0.3,0.44-0.31c1.23-0.12,2.46-0.23,3.62,0.36c0.21,0.11,0.37,0.33,0.54,0.5
		C72.16,85.5,72.11,85.56,72.06,85.61z"/>
	<path d="M57.6,112.18c-1.12,0.63-1.92,0.08-2.75-0.42c-0.49-0.29-0.25-0.66-0.13-0.97c0.03-0.08,0.51-0.09,0.71,0.01
		c0.6,0.3,1.16,0.66,1.73,1.02C57.32,111.91,57.44,112.04,57.6,112.18z"/>
	<path d="M52.99,79.41c-0.83-1.86-1.24-3.83-1.51-5.84c0.08-0.02,0.16-0.04,0.24-0.06c0.5,1.95,1,3.9,1.5,5.85
		C53.14,79.37,53.06,79.38,52.99,79.41z"/>
	<path d="M48.03,108.08c-0.33-0.11-0.69-0.16-0.97-0.33c-0.65-0.39-1.28-0.83-1.9-1.28c-0.16-0.11-0.23-0.34-0.35-0.51
		c0.18,0.02,0.37,0.04,0.55,0.05c1.03,0.02,1.59,0.87,2.35,1.37c0.18,0.12,0.29,0.34,0.43,0.51
		C48.1,107.94,48.07,108.01,48.03,108.08z"/>
	<path d="M76.58,91.69c-0.36,0.7-0.69,1.39-1.06,2.07c-0.08,0.13-0.31,0.17-0.46,0.26c0.01-0.18-0.02-0.36,0.03-0.52
		c0.2-0.65,0.41-1.31,0.65-1.95c0.08-0.21,0.25-0.38,0.39-0.56C76.24,91.18,76.37,91.38,76.58,91.69z"/>
	<path d="M80.47,90.58c0-0.35,0.01-0.52,0-0.69c-0.05-0.48-0.17-0.96-0.17-1.44c0-0.29,0.18-0.58,0.28-0.87
		c0.18,0.18,0.5,0.35,0.52,0.54c0.04,0.61,0,1.23-0.08,1.84C80.99,90.15,80.74,90.3,80.47,90.58z"/>
	<path d="M52.65,107.02c1.43-0.2,2.43,0.63,3.6,1.14C55.78,108.51,52.96,107.59,52.65,107.02z"/>
	<path d="M62.46,86.49c0.29-0.28,0.58-0.39,0.95-0.05c0.36,0.32,0.77,0.6,1.12,0.93c0.09,0.09,0.13,0.36,0.06,0.48
		c-0.06,0.12-0.27,0.2-0.43,0.24c-0.09,0.02-0.23-0.07-0.31-0.15C63.38,87.47,62.93,86.99,62.46,86.49z"/>
	<path d="M75.08,94.82c0.67,0.7,0.17,2.85-0.85,3.47C74.52,97.07,74.79,95.99,75.08,94.82z"/>
	<path d="M66.4,112.02c-0.4,0.32-0.99,0.21-1.54-0.3c-0.27-0.25-0.55-0.51-0.79-0.78c-0.08-0.1-0.08-0.27-0.12-0.41
		c0.14-0.03,0.29-0.09,0.43-0.07c0.13,0.02,0.25,0.11,0.36,0.2C65.29,111.1,65.83,111.55,66.4,112.02z"/>
	<path d="M69.51,99.88c0.71-1.32,1.43-2.63,2.13-3.91C71.8,97.01,70.35,99.6,69.51,99.88z"/>
	<path d="M59.32,110.87c-1.03,0.57-1.7,0.42-2.6-0.9C57.78,109.93,58.4,110.84,59.32,110.87z"/>
	<path d="M64.57,85.99c0.25-0.32,0.55-0.44,0.93-0.17c0.3,0.21,0.63,0.4,0.88,0.67c0.11,0.12,0.04,0.42,0.06,0.63
		c-0.19-0.04-0.41-0.04-0.56-0.14C65.43,86.67,65.01,86.33,64.57,85.99z"/>
	<path d="M38.61,99.61c0.42,0.09,0.84,0.17,1.25,0.27c0.08,0.02,0.2,0.19,0.18,0.24c-0.05,0.13-0.18,0.33-0.27,0.32
		c-0.58-0.03-1.16-0.1-1.74-0.19c-0.09-0.01-0.19-0.24-0.19-0.37c0-0.08,0.18-0.19,0.29-0.23c0.15-0.04,0.31-0.01,0.47-0.01
		C38.6,99.64,38.61,99.62,38.61,99.61z"/>
	<path d="M39.16,98.18c-0.47-0.56-0.94-1.13-1.43-1.71c0.24-0.38,0.47-0.54,0.77-0.11c0.25,0.35,0.53,0.68,0.75,1.06
		c0.1,0.19,0.08,0.45,0.12,0.67C39.3,98.13,39.23,98.15,39.16,98.18z"/>
	<path d="M72.46,99.54c0.47,0.64,0.16,2.19-0.58,2.72C71.89,101.28,72.1,100.44,72.46,99.54z"/>
	<path d="M47.04,105.59c0.66,0.31,1.33,0.61,1.98,0.93c0.06,0.03,0.08,0.23,0.04,0.32c-0.04,0.08-0.16,0.17-0.26,0.19
		C48.47,107.07,47.07,106.09,47.04,105.59z"/>
	<path d="M50.08,105.06c-0.72-0.27-1.38-0.52-2.16-0.82c0.57-0.29,1.06-0.44,1.53-0.19C49.83,104.25,50.26,104.52,50.08,105.06z"/>
	<path d="M37.49,101.14c-0.46-0.01-1.28-0.92-1.18-1.26c0.03-0.11,0.36-0.25,0.42-0.2c0.37,0.3,0.7,0.64,1.03,0.98
		c0.05,0.05,0.06,0.21,0.02,0.26C37.68,101.03,37.55,101.1,37.49,101.14z"/>
	<path d="M45.76,97.05c-0.31-0.49-0.2-1.53,0.18-2.07C46.5,95.32,46.43,96.2,45.76,97.05z"/>
	<path d="M36.22,97.45c0.47-0.1,1.35,0.34,1.4,0.72c0.02,0.13-0.24,0.43-0.37,0.43C36.72,98.59,36.25,98.04,36.22,97.45z"/>
	<path d="M59.09,90.46c-0.33-0.17-0.67-0.3-0.95-0.52c-0.09-0.07-0.07-0.38,0-0.52c0.04-0.08,0.33-0.12,0.45-0.06
		c0.27,0.12,0.51,0.3,0.74,0.48c0.09,0.07,0.15,0.25,0.13,0.36C59.43,90.29,59.26,90.34,59.09,90.46z"/>
	<path d="M59.58,88.78c0.09-0.49,0.33-0.64,0.73-0.56c0.41,0.09,0.87,0.64,0.86,1.13C60.63,89.16,60.12,88.97,59.58,88.78z"/>
	<path d="M48.58,96c0-0.6-0.01-1.11,0.01-1.61c0-0.1,0.1-0.19,0.16-0.29c0.11,0.06,0.25,0.1,0.32,0.2
		C49.51,94.91,49.39,95.43,48.58,96z"/>
	<path d="M50.89,91.34c-0.04,0.47-0.09,0.95-0.13,1.42c-0.08,0.02-0.16,0.04-0.24,0.06c-0.12-0.17-0.36-0.36-0.33-0.5
		c0.06-0.37,0.24-0.72,0.37-1.08C50.66,91.27,50.77,91.31,50.89,91.34z"/>
	<path d="M77.94,91.03c0.4,0.6,0.27,1.35-0.45,1.67c0.1-0.62,0.18-1.15,0.27-1.68C77.82,91.03,77.88,91.03,77.94,91.03z"/>
	<path d="M54.87,91c0.13,0.3,0.26,0.54,0.33,0.8c0.03,0.12-0.04,0.28-0.07,0.42c-0.14-0.04-0.31-0.04-0.42-0.13
		C54.29,91.75,54.33,91.4,54.87,91z"/>
	<path d="M53.14,93.11c-0.71-0.63-0.09-1.29-0.33-1.84C53.42,91.74,53.25,92.34,53.14,93.11z"/>
	<path d="M61.81,105.8c0.48-0.38,0.81-0.12,1.17,0.14C62.6,106.4,62.27,106.36,61.81,105.8z"/>
	<path d="M62.87,103.12c0.27,0,0.54-0.04,0.79,0.02c0.16,0.04,0.29,0.23,0.44,0.36c-0.04,0.07-0.08,0.14-0.12,0.21
		c-0.37-0.08-0.75-0.17-1.12-0.25C62.86,103.34,62.87,103.23,62.87,103.12z"/>
	<path d="M19.47,46.54c-0.16,0.78-0.32,1.55-0.48,2.33c-0.05-0.01-0.1-0.02-0.15-0.03c0.15-0.78,0.3-1.56,0.45-2.33
		C19.35,46.51,19.41,46.52,19.47,46.54z"/>
</g>
</svg>
