<?xml version="1.0" encoding="utf-8"?>
<!-- Generator: Adobe Illustrator 16.0.0, SVG Export Plug-In . SVG Version: 6.00 Build 0)  -->
<!DOCTYPE svg PUBLIC "-//W3C//DTD SVG 1.1//EN" "http://www.w3.org/Graphics/SVG/1.1/DTD/svg11.dtd">
<svg version="1.1" id="Layer_1" xmlns="http://www.w3.org/2000/svg" xmlns:xlink="http://www.w3.org/1999/xlink" x="0px" y="0px"
	 width="180px" height="180px" viewBox="0 0 180 180" enable-background="new 0 0 180 180" xml:space="preserve">
<g>
	<path fill="#FFFFFF" d="M90.02,16.83c-4.41-0.03-8.78,0.36-13.1,1.17c-15.6,2.91-29.02,10-39.89,21.57
		c-15.39,16.39-21.88,35.94-19.78,58.3c0.86,9.16,3.55,17.83,7.86,25.97c7.41,14,18.19,24.64,32.37,31.69
		c14.24,7.08,29.29,9.2,44.96,6.53c15-2.56,27.98-9.23,38.79-19.92c12.63-12.48,19.82-27.62,21.56-45.31
		c0.89-9.07,0.02-18-2.42-26.77c-0.59-2.13-2.56-3.25-4.59-2.65c-1.97,0.58-2.94,2.53-2.35,4.67c2.66,9.63,3.19,19.4,1.44,29.23
		c-2.71,15.25-9.89,28.08-21.59,38.2c-15.76,13.64-34.11,18.72-54.64,15.35c-14.15-2.32-26.26-8.86-36.09-19.29
		c-14.94-15.85-20.8-34.69-17.52-56.21c2.25-14.79,9.09-27.33,20.07-37.44c15.43-14.2,33.7-19.85,54.48-17.05
		c12.03,1.62,22.69,6.51,32.1,14.15c0.54,0.43,0.71,0.79,0.51,1.52c-1.77,6.54,3.95,12.61,10.46,11.14
		c4.92-1.12,7.92-5.85,6.79-10.75c-1.12-4.84-5.95-7.79-10.86-6.6c-0.62,0.15-1.06,0.09-1.56-0.34
		C123.39,22.65,107.69,17.03,90.02,16.83z M55.79,118.85c0.23,0.04,0.32,0.07,0.41,0.07c4.97,0,9.94-0.01,14.91,0.02
		c0.6,0,0.76-0.3,0.93-0.76c1.17-3.2,2.38-6.39,3.52-9.59c0.24-0.69,0.58-0.9,1.31-0.9c7.35,0.03,14.69,0.02,22.04,0.02
		c0.36,0,0.71,0,1.13,0c-0.05-0.27-0.07-0.45-0.12-0.62c-1.31-3.73-2.64-7.45-3.93-11.19c-0.2-0.59-0.55-0.6-1.03-0.59
		c-4.66,0.01-9.33,0.01-13.99,0c-0.35,0-0.69-0.03-1.17-0.05c3.47-9.55,6.89-18.96,10.38-28.58c0.23,0.59,0.37,0.93,0.49,1.27
		c5.87,16.67,11.75,33.33,17.6,50.01c0.27,0.77,0.62,1,1.43,1c4.6-0.04,9.21-0.02,13.81-0.02c0.32,0,0.65,0,1.13,0
		c-8.56-22.23-17.06-44.31-25.57-66.42c-0.4,0-0.76,0-1.13,0c-5.09,0-10.18,0.03-15.27-0.03c-1.02-0.01-1.46,0.28-1.82,1.24
		c-7.15,18.67-14.34,37.31-21.52,55.97C58.14,112.71,56.98,115.75,55.79,118.85z"/>
	<path fill-rule="evenodd" clip-rule="evenodd" d="M90.02,16.83c17.67,0.19,33.37,5.82,46.98,17.15c0.51,0.42,0.94,0.49,1.56,0.34
		c4.91-1.2,9.74,1.76,10.86,6.6c1.13,4.9-1.86,9.63-6.79,10.75c-6.5,1.47-12.22-4.6-10.46-11.14c0.2-0.73,0.02-1.08-0.51-1.52
		c-9.41-7.64-20.07-12.53-32.1-14.15c-20.78-2.8-39.05,2.85-54.48,17.05C34.11,52.02,27.27,64.56,25.02,79.35
		c-3.28,21.52,2.59,40.36,17.52,56.21c9.83,10.43,21.95,16.97,36.09,19.29c20.53,3.37,38.88-1.71,54.64-15.35
		c11.7-10.12,18.87-22.96,21.59-38.2c1.75-9.83,1.21-19.59-1.44-29.23c-0.59-2.13,0.38-4.09,2.35-4.67c2.03-0.59,4,0.52,4.59,2.65
		c2.44,8.77,3.31,17.7,2.42,26.77c-1.73,17.7-8.93,32.84-21.56,45.31c-10.81,10.68-23.78,17.36-38.79,19.92
		c-15.67,2.67-30.72,0.55-44.96-6.53c-14.19-7.05-24.96-17.69-32.37-31.69c-4.31-8.14-7-16.81-7.86-25.97
		c-2.1-22.36,4.39-41.91,19.78-58.3C47.9,28,61.32,20.91,76.93,18C81.24,17.19,85.61,16.8,90.02,16.83z"/>
	<path fill-rule="evenodd" clip-rule="evenodd" d="M55.79,118.85c1.19-3.1,2.35-6.14,3.51-9.17c7.18-18.65,14.37-37.3,21.52-55.97
		c0.37-0.96,0.81-1.25,1.82-1.24c5.09,0.06,10.18,0.03,15.27,0.03c0.36,0,0.73,0,1.13,0c8.51,22.11,17.01,44.19,25.57,66.42
		c-0.48,0-0.81,0-1.13,0c-4.6,0-9.21-0.02-13.81,0.02c-0.8,0.01-1.16-0.23-1.43-1c-5.85-16.67-11.73-33.34-17.6-50.01
		c-0.12-0.34-0.26-0.68-0.49-1.27c-3.5,9.62-6.91,19.03-10.38,28.58c0.48,0.02,0.83,0.05,1.17,0.05c4.66,0,9.33,0.01,13.99,0
		c0.48,0,0.83,0,1.03,0.59c1.28,3.74,2.61,7.46,3.93,11.19c0.06,0.16,0.07,0.34,0.12,0.62c-0.42,0-0.77,0-1.13,0
		c-7.35,0-14.69,0.01-22.04-0.02c-0.73,0-1.06,0.21-1.31,0.9c-1.15,3.21-2.35,6.39-3.52,9.59c-0.17,0.46-0.34,0.76-0.93,0.76
		c-4.97-0.03-9.94-0.02-14.91-0.02C56.12,118.92,56.03,118.89,55.79,118.85z"/>
</g>
</svg>
