<?xml version="1.0" encoding="utf-8"?>
<!-- Generator: Adobe Illustrator 16.0.0, SVG Export Plug-In . SVG Version: 6.00 Build 0)  -->
<!DOCTYPE svg PUBLIC "-//W3C//DTD SVG 1.1//EN" "http://www.w3.org/Graphics/SVG/1.1/DTD/svg11.dtd">
<svg version="1.1" id="Layer_1" xmlns="http://www.w3.org/2000/svg" xmlns:xlink="http://www.w3.org/1999/xlink" x="0px" y="0px"
	 width="180px" height="180px" viewBox="0 0 180 180" enable-background="new 0 0 180 180" xml:space="preserve">
<g>
	<path d="M164.78,76.67c-3.51-2.44-11.56-3.35-17.86-2.13c-0.73-6.09-4.1-11.43-9.95-16.15l-3.37-2.44l-2.34,3.5
		c-2.93,4.57-4.39,10.97-3.95,17.06c0.15,2.13,0.88,5.94,3.07,9.29c-2.05,1.22-6.29,2.74-11.86,2.74H12.7l-0.29,1.22
		c-1.02,6.09-1.02,25.13,10.98,39.76c9.07,11.12,22.54,16.76,40.25,16.76c38.35,0,66.74-18.43,80.06-51.79
		c5.27,0.15,16.54,0,22.25-11.43c0.15-0.3,0.44-0.91,1.46-3.2l0.59-1.22L164.78,76.67L164.78,76.67z M97.3,33.71H81.2v15.23h16.1
		V33.71L97.3,33.71z M97.3,51.99H81.2v15.23h16.1V51.99L97.3,51.99z M78.28,51.99h-16.1v15.23h16.1V51.99L78.28,51.99z M59.25,51.99
		h-16.1v15.23h16.1V51.99L59.25,51.99z M40.22,70.27h-16.1v15.23h16.1V70.27L40.22,70.27z M59.25,70.27h-16.1v15.23h16.1V70.27
		L59.25,70.27z M78.28,70.27h-16.1v15.23h16.1V70.27L78.28,70.27z M97.3,70.27H81.2v15.23h16.1V70.27L97.3,70.27z M116.33,70.27
		h-16.1v15.23h16.1V70.27L116.33,70.27z"/>
</g>
</svg>
