<?xml version="1.0" encoding="utf-8"?>
<!-- Generator: Adobe Illustrator 16.0.0, SVG Export Plug-In . SVG Version: 6.00 Build 0)  -->
<!DOCTYPE svg PUBLIC "-//W3C//DTD SVG 1.1//EN" "http://www.w3.org/Graphics/SVG/1.1/DTD/svg11.dtd">
<svg version="1.1" id="Layer_2" xmlns="http://www.w3.org/2000/svg" xmlns:xlink="http://www.w3.org/1999/xlink" x="0px" y="0px"
	 width="180px" height="180px" viewBox="0 0 180 180" enable-background="new 0 0 180 180" xml:space="preserve">
<g>
	<path fill-rule="evenodd" clip-rule="evenodd" fill="#FFFFFF" d="M98.33,168.21c1.22-1.74,2.35-3.56,3.68-5.21
		c2.79-3.44,5.53-6.95,8.6-10.14c2.98-3.1,6.04-6.14,9.58-8.66c2.4-1.71,5.05-2.9,7.67-4.17c3-1.46,6.09-2.67,9.35-3.39
		c0.37-0.08,0.84-0.1,1.16,0.06c3.22,1.55,6.42,3.13,9.62,4.74c0.9,0.45,1.75,0.99,2.59,1.47c-6.14,4.25-11.76,8.96-15.88,15.26
		c-1.9,2.91-3.18,6.1-4.3,9.37c-0.07,0.21-0.06,0.44-0.09,0.67C119.66,168.21,109,168.21,98.33,168.21z M125.18,150.47
		c0.31-1.09,0.61-2.08,0.86-3.08c0.41-1.6,0.8-3.2,1.17-4.8c0.05-0.21-0.09-0.46-0.14-0.69c-0.25,0.06-0.55,0.05-0.74,0.2
		c-0.33,0.26-0.66,0.58-0.88,0.94c-1.65,2.73-3.28,5.48-4.88,8.24c-0.28,0.49-0.39,1.07-0.58,1.64c1,0.4,1.89,0.76,2.78,1.11
		c1.11,0.44,1.17,0.46,0.86,1.58c-0.71,2.56-1.49,5.11-2.24,7.66c-0.1,0.33-0.15,0.67-0.22,1c0.07,0.05,0.15,0.1,0.22,0.16
		c0.51-0.46,1.14-0.84,1.51-1.39c2.02-3.08,3.99-6.18,5.93-9.3c0.73-1.17,0.39-1.87-0.96-2.33
		C127,151.12,126.15,150.81,125.18,150.47z"/>
	<path fill-rule="evenodd" clip-rule="evenodd" fill="#FFFFFF" d="M50.2,168.21c-1.19-1.4-2.38-2.81-3.58-4.21
		c-3.06-3.56-5.94-7.26-8.32-11.33c-1.88-3.21-3.85-6.38-5.78-9.56c-0.08-0.13-0.14-0.27-0.25-0.5c0.27-0.1,0.51-0.22,0.76-0.28
		c1.57-0.4,3.14-0.81,4.72-1.17c0.35-0.08,0.74,0.05,1.12,0.09c2.38,0.24,4.53,1.19,6.71,2.1c3.02,1.26,6.1,2.35,9.18,3.47
		c3.08,1.12,5.8,2.9,8.58,4.57c4.8,2.87,9.45,5.99,13.24,10.14c1.89,2.07,3.44,4.44,5.15,6.67
		C71.22,168.21,60.71,168.21,50.2,168.21z"/>
	<path fill-rule="evenodd" clip-rule="evenodd" fill="#FFFFFF" d="M132.61,168.21c1.64-5.69,4.68-10.57,8.95-14.61
		c2.81-2.66,5.88-5.05,8.84-7.56c0.69-0.59,1.38-1.18,2.19-1.87c0.34,0.22,0.79,0.51,1.35,0.88c-0.5,0.46-0.91,0.82-1.31,1.19
		c-3.82,3.49-7.76,6.85-11.01,10.91c-2.2,2.75-4.53,5.42-5.91,8.72c-0.32,0.76-0.54,1.56-0.81,2.34
		C134.13,168.21,133.37,168.21,132.61,168.21z"/>
	<path fill-rule="evenodd" clip-rule="evenodd" fill="#FFFFFF" d="M46.24,168.21c-0.5-0.7-0.99-1.4-1.51-2.08
		c-0.57-0.75-1.13-1.5-1.77-2.19c-5.26-5.72-8.73-12.54-11.9-19.53c-0.12-0.28-0.22-0.57-0.32-0.85c-0.03-0.09-0.04-0.19-0.08-0.37
		c0.22-0.1,0.44-0.2,0.66-0.29c0.21-0.08,0.42-0.15,0.68-0.24c0.16,0.37,0.29,0.73,0.46,1.06c1.04,2.05,2.01,4.15,3.17,6.13
		c1.38,2.37,2.8,4.72,4.42,6.92c2.31,3.15,4.81,6.15,7.23,9.21c0.58,0.73,1.13,1.49,1.69,2.23
		C48.07,168.21,47.15,168.21,46.24,168.21z"/>
	<path fill-rule="evenodd" clip-rule="evenodd" fill="#FFFFFF" d="M43.5,168.21c-1.92-2.56-3.84-5.12-5.77-7.66
		c-0.91-1.19-1.99-2.26-2.75-3.54c-2.23-3.74-4.34-7.55-6.48-11.34c-0.21-0.37-0.34-0.78-0.55-1.27c0.8-0.38,1.57-0.74,2.24-1.06
		c1.01,2.39,1.86,4.76,2.98,7c2.46,4.94,5.23,9.68,8.96,13.81c1.13,1.25,2.04,2.7,3.05,4.06C44.61,168.21,44.06,168.21,43.5,168.21z
		"/>
	<path fill-rule="evenodd" clip-rule="evenodd" fill="#FFFFFF" d="M130.93,168.21c1.41-4.86,3.71-9.24,6.87-13.19
		c2.96-3.7,6.62-6.63,10.26-9.58c0.94-0.77,1.91-1.5,2.93-2.31c0.36,0.18,0.79,0.39,1.38,0.68c-0.8,0.6-1.51,1.13-2.23,1.66
		c-5.31,3.91-10.31,8.15-14.07,13.66c-1.79,2.62-2.99,5.52-4.02,8.5c-0.06,0.18-0.05,0.39-0.07,0.59
		C131.64,168.21,131.29,168.21,130.93,168.21z"/>
	<path fill-rule="evenodd" clip-rule="evenodd" fill="#FFFFFF" d="M149.1,66.25c-1.14-1.08-2.25-2.01-3.22-3.06
		c-2.39-2.59-4.75-5.22-7.06-7.88c-1.87-2.15-3.88-4.06-6.55-5.21c-0.54-0.23-0.95-0.74-1.41-1.14c-0.77-0.66-1.53-1.34-2.31-1.99
		c-0.1-0.08-0.3-0.04-0.46-0.06c0.04,0.15,0.06,0.31,0.11,0.46c0.01,0.04,0.07,0.07,0.11,0.1c2.43,1.92,3.7,4.69,5.05,7.32
		c1.82,3.54,3.47,7.18,4.48,11.06c1.66,6.37,1.69,12.71-0.54,18.96c-1.33,3.71-3.51,6.97-5.65,10.24c-0.54,0.82-1.13,1.61-1.71,2.41
		c-0.19,0.26-0.42,0.48-0.8,0.65c0.11-0.62,0.2-1.25,0.33-1.87c0.86-4.07,0.83-8.17,0.44-12.27c-0.22-2.25-0.33-4.52-0.79-6.72
		c-0.74-3.46-2.44-6.54-4.23-9.57c-0.45-0.76-0.81-1.57-1.22-2.36c-0.12-0.23-0.25-0.44-0.37-0.67c-0.09,0.03-0.17,0.05-0.26,0.08
		c0.05,0.29,0.08,0.58,0.17,0.86c1.24,3.77,2.43,7.55,2.72,11.53c0.17,2.26,0.04,4.55,0.14,6.82c0.13,2.95-0.73,5.71-1.51,8.49
		c-0.04,0.14-0.1,0.28-0.27,0.4c0.07-0.57,0.22-1.15,0.19-1.71c-0.07-1.36-0.11-2.75-0.37-4.08c-0.47-2.36-1.17-4.68-1.63-7.04
		c-0.88-4.43-3.01-8.29-5.35-12.04c-2.45-3.92-5.33-7.56-8.53-10.89c-1.55-1.62-3-3.3-4.31-5.11c-0.15-0.2-0.36-0.36-0.54-0.53
		c-0.07,0.04-0.14,0.09-0.21,0.13c0.08,0.22,0.13,0.47,0.26,0.67c0.76,1.17,1.54,2.33,2.32,3.48c1.42,2.1,2.61,4.29,3.4,6.74
		c1.76,5.43,3.59,10.84,4.84,16.42c0.37,1.65,0.63,3.33,0.95,4.99c-0.07,0.02-0.15,0.05-0.22,0.07c-0.09-0.18-0.18-0.36-0.27-0.54
		c-1.58-3.32-3.18-6.63-4.73-9.96c-0.62-1.33-1.13-2.71-1.66-4.08c-2.23-5.78-5.11-11.21-8.73-16.25c-2.71-3.78-5.78-7.2-9.63-9.86
		c-3.83-2.65-7.91-4.85-12.22-6.64c-3.08-1.28-5.9-3.04-8.21-5.42c-1.48-1.53-2.55-3.45-3.8-5.2c-0.81-1.13-1.62-2.27-2.42-3.41
		c-0.03-0.04-0.06-0.1-0.1-0.11c-1.13-0.31-0.61-1-0.32-1.57c2.21-4.37,5.73-7.04,10.55-7.88c4.94-0.86,9.89-0.69,14.85-0.04
		c8.49,1.11,16.48,3.69,23.94,7.85c7.41,4.13,13.97,9.34,19.85,15.48c4.05,4.23,7.23,8.94,9.66,14.21
		C144.26,55.75,146.66,60.95,149.1,66.25z"/>
	<path fill-rule="evenodd" clip-rule="evenodd" fill="#FFFFFF" d="M115.07,86.33c0.14,0.43,0.14,0.94,0.39,1.12
		c1.71,1.27,1.28,3.26,1.55,4.92c0.4,2.46,0.51,5,0.51,7.5c-0.01,5.63-1.96,10.56-5.4,15.03c-1.69,2.19-3.99,3.3-6.23,4.58
		c-3.36,1.92-7.04,3.13-10.7,4.37c-3.71,1.26-7.47,0.96-11.18,0.04c-0.83-0.21-1.57-0.86-2.32-1.37c-1.74-1.19-3.49-2.36-5.16-3.65
		c-3.22-2.47-6.38-5.01-9.58-7.51c-0.19-0.15-0.48-0.18-0.84-0.3c0.71-0.79,1.45-1.64,2.21-2.47c0.81-0.88,1.68-1.7,2.44-2.61
		C77.5,97.87,84.54,90.04,92,82.59c1.53-1.53,3.07-3.03,4.6-4.55c0.32-0.32,0.66-0.65,0.88-1.04c0.16-0.27,0.28-0.74,0.15-0.95
		c-0.13-0.21-0.62-0.34-0.92-0.29c-0.95,0.16-1.89,0.39-2.81,0.65c-1.95,0.55-3.9,1.13-5.85,1.7c-0.24,0.07-0.48,0.11-0.9,0.2
		c2.68-4.07,5.27-8.01,7.91-12.02c1.73,2.27,2.72,4.83,4.03,7.38c0.46-0.67,0.83-1.21,1.22-1.79c-0.04-0.01,0.04,0,0.09,0.04
		c0.29,0.2,0.57,0.41,0.86,0.62c0.15-0.38,0.46-0.78,0.41-1.13c-0.29-1.9-0.65-3.79-1.02-5.68c-0.14-0.69-0.39-1.36-0.55-1.92
		c2.71,2.47,4.72,5.58,6.74,8.74c-0.19,0.11-0.31,0.21-0.45,0.26c-2.06,0.75-3.58,2.14-4.81,3.92c-1.4,2.04-2.57,4.19-3.49,6.49
		c-0.06,0.16-0.07,0.34-0.09,0.52c0.07,0.03,0.13,0.05,0.2,0.08c1.08-1.89,2.16-3.79,3.31-5.8c0.3,1.08,0.56,2.01,0.81,2.95
		c1,3.82,3.74,5.63,7.39,6.35C111.57,87.7,113.33,87.26,115.07,86.33z M100.33,110.08c-0.02-0.12-0.04-0.24-0.06-0.36
		c-1.2-0.26-2.39-0.56-3.6-0.79c-1.87-0.35-3.72-0.6-5.64-0.18c-0.84,0.19-1.82-0.01-2.68-0.23c-1.04-0.26-2.04-0.3-3.08-0.06
		c-1.28,0.3-2.58,0.54-3.87,0.79c-0.77,0.15-1.54,0.3-2.32,0.44c-0.59,0.1-0.59,0.4-0.28,0.79c0.26,0.31,0.58,0.57,0.84,0.88
		c1.42,1.76,3.28,2.81,5.46,3.19c1.58,0.28,3.22,0.22,4.82,0.41c1.76,0.21,3.3-0.36,4.79-1.17c1.02-0.56,2.03-1.15,3-1.79
		C98.62,111.4,99.47,110.73,100.33,110.08z M95.11,97.58c-0.28,0.59-0.43,1.18-0.78,1.61c-1.54,1.91-5.27,2.33-7.2,0.84
		c-0.52-0.4-0.94-0.92-1.44-1.35c-0.18-0.15-0.46-0.18-0.7-0.26c0.05,0.23,0.03,0.5,0.15,0.68c2.02,3.12,6.97,3.51,9.47,0.74
		C95.19,99.2,95.43,98.47,95.11,97.58z"/>
	<path fill-rule="evenodd" clip-rule="evenodd" fill="#FFFFFF" d="M36.36,134.66c1.38-1.44,2.67-2.99,4.17-4.3
		c1.92-1.67,3.86-3.31,5.43-5.32c0.88-1.12,2.01-1.24,3.25-1.02c0.71,0.12,1.41,0.36,2.33,0.61c-0.75,0.61-1.34,1.1-1.94,1.57
		c-2.02,1.57-4.04,3.14-6.07,4.7c-0.66,0.51-1.39,0.94-2.05,1.45c-0.24,0.18-0.38,0.5-0.56,0.75c0.29,0.17,0.57,0.44,0.88,0.48
		c0.57,0.09,1.17,0.08,1.75,0.04c2.73-0.17,5.33,0.6,7.95,1.17c3.45,0.75,6.69,2.03,9.76,3.77c1.7,0.96,3.47,1.8,5.19,2.72
		c3.25,1.72,6.02,4.13,8.92,6.35c3.41,2.61,6.29,5.68,8.54,9.32c0.78,1.27,1.37,2.66,2.07,3.98c0.79,1.48,1.61,2.93,2.41,4.4
		c0.06,0.11,0.1,0.24,0.15,0.36c0.07-0.06,0.15-0.11,0.22-0.17c-0.18-0.45-0.35-0.9-0.55-1.34c-1.45-3.12-2.7-6.35-4.69-9.21
		c-2.3-3.28-5.28-5.85-8.3-8.43c-5.38-4.59-11.55-7.86-17.93-10.67c-4.55-2-9.43-3.15-14.51-2.99c-0.16,0.01-0.33-0.02-0.65-0.03
		c0.38-0.29,0.64-0.48,0.89-0.67c3.29-2.57,6.58-5.16,9.89-7.72c0.88-0.68,1.83-1.27,2.75-1.91c1.84-1.26,3.69-2.51,5.5-3.8
		c0.52-0.37,0.77-0.29,1.14,0.2c1.57,2.08,3.18,4.14,4.8,6.19c0.28,0.35,0.65,0.64,1.02,0.9c0.15,0.1,0.51,0.11,0.61,0.01
		c0.14-0.14,0.18-0.44,0.17-0.67c-0.01-0.19-0.16-0.37-0.26-0.55c-1.23-2.3-2.46-4.61-3.7-6.91c-0.51-0.95-0.5-1.01,0.47-1.46
		c0.57-0.27,1.16-0.51,1.76-0.69c0.2-0.06,0.49,0.02,0.68,0.14c2.83,1.74,5.63,3.52,8.47,5.25c0.43,0.26,0.69,0.5,0.67,1.05
		c-0.07,1.79-0.04,3.59-0.16,5.38c-0.12,1.7-1.01,3.1-2.01,4.45c-0.4,0.54-0.67,1.18-0.98,1.74c-0.13-0.17-0.35-0.45-0.58-0.74
		c-0.06,0.03-0.12,0.06-0.18,0.09c0.1,0.22,0.19,0.45,0.31,0.66c3.35,6.03,6.76,12.04,10.02,18.12c1.76,3.28,3.23,6.72,4.87,10.06
		c0.3,0.61,0.8,1.12,1.2,1.67c0.04,0.05,0.09,0.1,0.11,0.16c0.28,0.8,0.31,0.8,0.86,0.16c-0.02,0.42,0.01,0.91-0.09,1.36
		c-0.07,0.28-0.31,0.7-0.53,0.73c-0.48,0.09-1-0.02-1.5-0.05c-0.02-0.08-0.04-0.15-0.06-0.23c-0.05,0.19-0.1,0.39-0.2,0.79
		c-0.61-0.87-1.17-1.55-1.61-2.3c-2.48-4.26-5.14-8.39-8.58-11.97c-3.57-3.72-7.67-6.78-11.82-9.8c-2.72-1.98-5.7-3.38-8.89-4.39
		c-1.3-0.41-2.5-1.13-3.81-1.52c-5.31-1.6-10.72-2.5-16.29-1.79c-0.2,0.03-0.4,0.03-0.6,0.05C36.45,134.79,36.4,134.73,36.36,134.66
		z"/>
	<path fill-rule="evenodd" clip-rule="evenodd" fill="#FFFFFF" d="M92.28,159.27c0.51-0.87,1.02-1.75,1.54-2.62
		c3.71-6.21,7.41-12.41,11.12-18.62c0.35-0.59,0.76-1.14,1.08-1.75c0.16-0.31,0.2-0.69,0.28-1.03c0.11-0.01,0.4-0.03,0.69-0.04
		c-0.11-0.28-0.16-0.63-0.35-0.84c-2.38-2.64-3.55-5.75-3.7-9.27c-0.04-0.89-0.13-1.77-0.13-2.66c0-0.24,0.18-0.59,0.38-0.7
		c2.72-1.47,5.45-2.91,8.12-4.32c1.72,0.9,3.54,1.84,5.34,2.79c0.45,0.23,0.92,0.43,1.35,0.7c3.53,2.26,7.07,4.49,10.55,6.82
		c1.34,0.9,2.52,2.04,3.74,3.11c0.35,0.3,0.58,0.73,0.92,1.15c-0.26,0.12-0.39,0.2-0.52,0.24c-5.73,1.66-11.41,3.46-16.88,5.84
		c-4.17,1.82-7.88,4.37-11.34,7.32c-2.46,2.09-4.47,4.56-6.5,7.03c-1.89,2.29-3.76,4.59-5.63,6.88
		C92.3,159.28,92.29,159.28,92.28,159.27z"/>
	<path fill-rule="evenodd" clip-rule="evenodd" fill="#FFFFFF" d="M88.95,161.3c-0.15-0.25-0.25-0.37-0.3-0.5
		c-2.44-5.93-5.64-11.46-8.79-17.03c-1.36-2.41-2.79-4.77-4.2-7.15c-0.2-0.34-0.37-0.61,0.02-0.98c2.37-2.29,3.56-5.2,4.3-8.34
		c0.04-0.19,0.1-0.38,0.17-0.65c0.23,0.13,0.41,0.21,0.56,0.32c3.49,2.36,7.38,3.41,11.54,3.58c1.88,0.08,3.55-0.76,5.27-1.35
		c1.01-0.35,1.04-0.39,1.22,0.66c0.4,2.34,0.77,4.69,1.13,7.05c0.18,1.16-0.22,2.2-0.78,3.19c-1.57,2.75-3.2,5.48-4.69,8.28
		c-1.35,2.52-2.63,5.09-3.77,7.71C89.92,157.69,89.53,159.44,88.95,161.3z"/>
	<path fill-rule="evenodd" clip-rule="evenodd" fill="#FFFFFF" d="M117.44,119.67c1-0.69,1.99-1.2,2.76-1.95
		c1-0.97,1.83-0.79,2.83-0.07c3.74,2.7,7.59,5.26,11.24,8.08c2.6,2.01,4.95,4.35,7.38,6.57c0.5,0.45,0.87,1.04,1.42,1.72
		c-0.45,0.03-0.71,0.06-0.97,0.06c-3.85,0.07-7.64,0.5-11.32,1.73c-3.46,1.16-7,2.1-10.39,3.46c-5.91,2.37-11.32,5.62-15.92,10.08
		c-2.26,2.19-4.46,4.44-6.65,6.69c-0.54,0.56-1.05,1.19-1.44,1.86c-1.4,2.44-2.75,4.91-4.09,7.38c-0.35,0.65-0.34,0.68-1.65,0.67
		c0.21-0.93,0.28-1.87,0.63-2.69c0.86-2.04,1.93-3.97,3.37-5.68c2.06-2.44,4.07-4.93,6.14-7.37c4.45-5.24,9.81-9.29,16.21-11.8
		c4.95-1.94,10.04-3.54,15.07-5.29c0.36-0.12,0.75-0.15,1.11-0.28c0.65-0.23,0.89-0.79,0.54-1.4c-0.27-0.45-0.62-0.87-0.99-1.24
		c-2.31-2.33-5.07-4.04-7.83-5.77C122.45,122.91,120.03,121.33,117.44,119.67z"/>
	<path fill-rule="evenodd" clip-rule="evenodd" fill="#FFFFFF" d="M54.58,84.24c-0.49-6.84,0.12-13.44,4.22-19.35
		c0.03,0.31,0.1,0.6,0.09,0.89c0,1.65-0.04,3.3-0.02,4.95c0.01,0.38,0.21,0.76,0.33,1.15c0.36-0.19,0.71-0.37,1.17-0.62
		c-0.27-0.14-0.38-0.19-0.32-0.17c2.41-2.14,4.11-4.88,5.83-7.6c1.73-2.74,2.94-5.73,3.84-8.83c0.91-3.14,1.44-6.32,1.12-9.82
		c0.19,0.29,0.28,0.41,0.35,0.54c0.68,1.18,1.78,1.83,2.92,2.47c1.82,1.01,3.6,2.08,5.4,3.13c0.17,0.1,0.33,0.23,0.56,0.4
		c-0.19,0.27-0.34,0.52-0.53,0.75c-2.24,2.66-4.54,5.26-6.71,7.97c-3.3,4.11-6.54,8.28-9.75,12.46c-1.52,1.98-3.08,3.97-4.35,6.12
		c-1.06,1.79-2.16,3.54-3.53,5.11c-0.13,0.15-0.25,0.31-0.39,0.46C54.78,84.26,54.71,84.24,54.58,84.24z"/>
	<path fill-rule="evenodd" clip-rule="evenodd" fill="#FFFFFF" d="M58.91,84.94c-1.49,1.57-3.01,3.18-4.54,4.79
		c-0.07-0.03-0.15-0.06-0.22-0.1c-0.12-0.71-0.24-1.43-0.35-2.14c-0.01-0.09,0.04-0.2,0.09-0.28c1.53-2.24,3.06-4.47,4.59-6.71
		c0.86-1.25,1.7-2.52,2.57-3.76c0.29-0.42,0.66-0.79,1.13-1.09c-0.15,0.47-0.3,0.95-0.45,1.42c-1.41,4.39,1.92,8.41,5.52,9.17
		c5.6,1.18,10.23-2.22,10.83-8.01c0.04-0.42,0.07-0.85,0.11-1.27c0.08-0.04,0.16-0.07,0.24-0.11c1.39,2.5,2.78,4.99,4.18,7.48
		c-2.4,1.15-4.81,2.43-7.32,3.48c-3,1.25-6.13,1.09-9.17,0.16c-2.07-0.64-4.04-1.6-6.05-2.43C59.65,85.38,59.29,85.14,58.91,84.94z"
		/>
	<path fill-rule="evenodd" clip-rule="evenodd" fill="#FFFFFF" d="M96.97,76.61c-0.23,0.26-0.44,0.54-0.69,0.78
		c-7.9,7.54-15.36,15.51-22.44,23.82c-1.94,2.28-3.92,4.53-5.95,6.73c-1.17,1.26-2.47,2.39-3.77,3.63
		c-0.57-0.66-1.17-1.37-1.76-2.06c1.2-1.33,2.36-2.63,3.53-3.91c3.52-3.83,7.01-7.68,10.87-11.19c1.76-1.6,3.34-3.4,5.02-5.09
		c2.47-2.48,4.98-4.93,7.43-7.43c1.21-1.23,2.36-2.52,3.47-3.83c0.42-0.49,0.83-0.84,1.46-0.98c0.91-0.2,1.81-0.45,2.71-0.68
		C96.9,76.46,96.94,76.53,96.97,76.61z"/>
	<path fill-rule="evenodd" clip-rule="evenodd" fill="#FFFFFF" d="M62.92,73.92c1.31-1.78,2.45-3.45,3.71-5.02
		c3.24-4.03,6.56-7.99,9.79-12.03c1.62-2.04,3.11-4.19,4.63-6.3c0.29-0.4,0.46-0.88,0.74-1.43c0.61,0.46,1.25,0.87,1.78,1.39
		c0.13,0.12-0.02,0.66-0.18,0.91c-0.42,0.63-0.9,1.22-1.38,1.81c-3.12,3.84-6.26,7.65-9.35,11.51c-1.68,2.1-3.26,4.27-4.91,6.39
		c-0.22,0.29-0.53,0.54-0.85,0.72C65.65,72.54,64.38,73.17,62.92,73.92z"/>
	<path fill-rule="evenodd" clip-rule="evenodd" fill="#FFFFFF" d="M87.7,48.22c2.43,1.04,4.05,2.7,5.51,4.54
		c1.34,1.69,2.49,3.5,3.36,5.5c0.6,1.38,1.55,2.63,2.04,4.05c0.84,2.44,1.46,4.95,2.15,7.44c0.11,0.38,0.1,0.8,0.16,1.32
		c-0.15-0.12-0.23-0.17-0.27-0.23c-1.11-1.91-2.27-3.79-3.29-5.75c-0.85-1.64-1.48-3.39-2.28-5.06c-1.73-3.61-3.85-6.97-6.27-10.16
		C88.45,49.39,88.14,48.87,87.7,48.22z"/>
	<path fill-rule="evenodd" clip-rule="evenodd" fill="#FFFFFF" d="M62.11,89.96c-1.23,2.6-2.44,5.14-3.76,7.91
		c-0.64-1.85-1.21-3.48-1.77-5.12c-0.12-0.34-0.23-0.67-0.3-1.02c-0.2-1-0.41-1.28-1.74-0.83c-0.01-0.07-0.01-0.14-0.02-0.21
		C57.03,90.45,59.54,90.21,62.11,89.96z"/>
	<path fill-rule="evenodd" clip-rule="evenodd" fill="#FFFFFF" d="M66.49,77.37c0.01-1.02,0.89-1.87,1.92-1.84
		c1.02,0.03,1.92,0.96,1.9,1.98c-0.02,1.07-0.83,1.89-1.86,1.89C67.41,79.39,66.49,78.43,66.49,77.37z"/>
	<path fill-rule="evenodd" clip-rule="evenodd" fill="#FFFFFF" d="M109.17,79.73c-1.16-0.01-1.87-0.75-1.84-1.91
		c0.02-0.99,0.74-1.83,1.57-1.82c0.7,0.01,2.02,1.62,1.99,2.44C110.87,79.1,110.02,79.74,109.17,79.73z"/>
	<path fill-rule="evenodd" clip-rule="evenodd" fill="#FFFFFF" d="M116.34,87.29c-0.4-1.17-0.23-1.88,0.67-2.54
		c0.88-0.64,1.56-1.56,2.37-2.41c0.17,0.99,0.35,2.02,0.52,3.05c0.01,0.09-0.08,0.26-0.16,0.3
		C118.61,86.23,117.48,86.75,116.34,87.29z"/>
	<path fill-rule="evenodd" clip-rule="evenodd" fill="#FFFFFF" d="M75.19,78.73c0.93,0.25,1.35,0.88,1.1,1.6
		c-0.24,0.71-0.89,0.98-1.63,0.67C74.83,80.25,75.01,79.49,75.19,78.73z"/>
	<path fill-rule="evenodd" clip-rule="evenodd" fill="#FFFFFF" d="M120.25,101.78c0-4.34,0-8.68,0-11.92
		C120.43,93.1,120.78,97.45,120.25,101.78z"/>
	<path fill-rule="evenodd" clip-rule="evenodd" fill="#FFFFFF" d="M77.87,127.77c-0.09-1.7-0.21-3.75-0.33-5.84
		c0.07,0.07,0.27,0.19,0.29,0.32c0.05,0.56-0.04,1.14,0.06,1.69C78.14,125.35,78.11,126.74,77.87,127.77z"/>
	<path fill-rule="evenodd" clip-rule="evenodd" fill="#FFFFFF" d="M117.9,78.47c0.61,0.77,0.4,1.42-0.66,1.82
		C117.49,79.62,117.69,79.07,117.9,78.47z"/>
	<path fill-rule="evenodd" clip-rule="evenodd" fill="#FFFFFF" d="M113.65,68.14c-0.18,0.11-0.31,0.18-0.45,0.27
		c-0.33-0.93-0.65-1.82-0.96-2.71c0.04-0.02,0.08-0.04,0.12-0.06C112.77,66.45,113.19,67.26,113.65,68.14z"/>
	<path fill-rule="evenodd" clip-rule="evenodd" fill="#FFFFFF" d="M87.7,125.5c1.66,0,3.32,0,4.98,0c0,0.04,0,0.08,0,0.12
		c-1.66,0-3.32,0-4.98,0C87.7,125.59,87.7,125.54,87.7,125.5z"/>
	<path fill-rule="evenodd" clip-rule="evenodd" fill="#FFFFFF" d="M53.71,79.22c0.06-1.33,0.13-2.66,0.19-3.99c0.01,0,0.02,0,0.03,0
		c0,1.32,0,2.64,0,3.97C53.86,79.21,53.78,79.21,53.71,79.22z"/>
	<path fill-rule="evenodd" clip-rule="evenodd" fill="#FFFFFF" d="M60.03,58.48c0.14,0.82,0.25,1.43,0.36,2.08
		c-0.25-0.37-0.46-0.68-0.76-1.13C59.69,59.3,59.82,58.99,60.03,58.48z"/>
	<path fill-rule="evenodd" clip-rule="evenodd" fill="#FFFFFF" d="M126.53,94.16c0-1.41,0-2.81,0-4.22c0.02,0,0.04,0,0.06,0
		c0,1.41,0,2.81,0,4.22C126.57,94.16,126.55,94.16,126.53,94.16z"/>
	<path fill-rule="evenodd" clip-rule="evenodd" fill="#FFFFFF" d="M99.29,61.56c-0.2-0.46-0.38-0.86-0.57-1.3
		c0.34,0.35,0.63,0.66,0.97,1.01C99.6,61.33,99.46,61.43,99.29,61.56z"/>
	<path fill-rule="evenodd" clip-rule="evenodd" fill="#FFFFFF" d="M53.53,81.27c0,0.91,0,1.83,0,2.74c-0.04,0-0.08,0-0.12,0
		c0-0.91,0-1.83,0-2.74C53.45,81.27,53.49,81.27,53.53,81.27z"/>
	<path fill-rule="evenodd" clip-rule="evenodd" fill="#FFFFFF" d="M121.97,162.52c0.41-1.06,0.82-2.11,1.23-3.17
		c0.49-1.25,1-2.49,1.46-3.76c0.36-0.99-0.12-1.86-1.1-2.18c-0.88-0.28-1.76-0.59-2.7-0.91c1.31-3.45,3.53-6.2,5.25-9.24
		c0.09,0.04,0.17,0.07,0.26,0.11c-0.36,1.23-0.74,2.45-1.08,3.69c-0.3,1.07-0.58,2.15-0.82,3.23c-0.11,0.52,0.26,0.78,0.7,0.94
		c0.78,0.29,1.58,0.54,2.35,0.87c1.07,0.46,1.07,0.71,0.44,1.68c-1.61,2.43-3.16,4.9-4.75,7.34c-0.33,0.51-0.69,0.99-1.04,1.48
		C122.1,162.58,122.04,162.55,121.97,162.52z"/>
	<path fill="#FFFFFF" d="M46.08,86.71c-0.67-3.07-1.38-6.14-1.85-9.24c-0.89-5.87-1.64-11.76-1.81-17.71
		c-0.16-5.65,0.59-11.16,2.77-16.39c2.67-6.4,7.27-11.17,13.05-14.85c0.69-0.44,2.76-1.29,2.79-1.31c0.01,0,0.42-0.2,0.63-0.27
		c0.01,0.09,0.03,0.18,0.05,0.27c0.73,3.95,1.75,7.88,3.78,11.43c0.34,0.59,0.55,1.27,0.99,1.77c1.06,1.19,2.23,2.28,3.34,3.43
		c0.2,0.21,0.43,0.48,0.46,0.74c0.08,0.81,0.13,1.62,0.08,2.43c-0.46,7.18-3.07,13.55-7.29,19.31c-0.11,0.15-0.25,0.29-0.4,0.47
		c0-1.77,0.07-3.47-0.02-5.16c-0.08-1.72-0.17-3.46-0.52-5.14c-0.53-2.55-1.31-5.06-1.94-7.59c-0.14-0.55-0.37-0.89-1.02-1.02
		c-0.05,0.22-0.13,0.42-0.15,0.63c-0.27,2.16-0.2,4.31,0.21,6.44c0.3,1.53-0.04,2.85-1.11,4.01c-0.72,0.78-1.49,1.56-1.99,2.47
		c-1.03,1.89-2.01,3.82-2.8,5.82c-1.45,3.69-2.71,7.46-2.63,11.5c0.1,4.63,0.6,9.2,1.96,13.66c2.18,7.19,5.11,14.05,8.74,20.63
		c0.84,1.52,1.36,3.21,1.99,4.83c0.07,0.19-0.08,0.46-0.15,0.79c-0.22-0.17-0.32-0.21-0.37-0.29c-1.34-1.88-2.74-3.71-3.99-5.64
		c-1.38-2.12-2.74-4.28-3.91-6.52c-2.07-3.95-3.96-8-6-11.97C47.71,91.83,46.66,89.36,46.08,86.71z"/>
</g>
</svg>
