<?xml version="1.0" encoding="utf-8"?>
<!-- Generator: Adobe Illustrator 16.0.0, SVG Export Plug-In . SVG Version: 6.00 Build 0)  -->
<!DOCTYPE svg PUBLIC "-//W3C//DTD SVG 1.1//EN" "http://www.w3.org/Graphics/SVG/1.1/DTD/svg11.dtd">
<svg version="1.1" id="Layer_2" xmlns="http://www.w3.org/2000/svg" xmlns:xlink="http://www.w3.org/1999/xlink" x="0px" y="0px"
	 width="180px" height="180px" viewBox="0 0 180 180" enable-background="new 0 0 180 180" xml:space="preserve">
<g>
	<circle cx="116.11" cy="89.99" r="24.94"/>
	<path d="M114.76,12.72c-0.23,0-0.45,0.01-0.68,0.02H65.81c-0.23-0.01-0.45-0.02-0.68-0.02c-0.23,0-0.45,0.01-0.68,0.02h-0.06v0
		c-13.43,0.39-24.2,11.4-24.2,24.92c0,13.77,11.17,24.94,24.94,24.94c0.43,0,0.86-0.01,1.28-0.03h47.07
		c0.42,0.02,0.85,0.03,1.28,0.03c13.77,0,24.94-11.17,24.94-24.94S128.54,12.72,114.76,12.72z"/>
	<path d="M88.83,89.99c0-1-0.06-1.99-0.18-2.97V65.05h-25.5v0.02c-13.43,0.39-24.2,11.4-24.2,24.92c0,13.53,10.77,24.53,24.2,24.92
		v0.02h25.5V92.95C88.77,91.98,88.83,90.99,88.83,89.99z"/>
	<path d="M64.4,117.42c-0.17,0-0.34-0.01-0.51-0.01c-0.17,0-0.34,0.01-0.51,0.01h-0.23v0c-13.43,0.39-24.2,11.39-24.2,24.92
		c0,13.77,11.16,24.94,24.94,24.94c13.77,0,24.94-11.16,24.94-24.94v-24.92H64.4z"/>
</g>
</svg>
