<?xml version="1.0" encoding="utf-8"?>
<!-- Generator: Adobe Illustrator 16.0.0, SVG Export Plug-In . SVG Version: 6.00 Build 0)  -->
<!DOCTYPE svg PUBLIC "-//W3C//DTD SVG 1.1//EN" "http://www.w3.org/Graphics/SVG/1.1/DTD/svg11.dtd">
<svg version="1.1" id="Layer_2" xmlns="http://www.w3.org/2000/svg" xmlns:xlink="http://www.w3.org/1999/xlink" x="0px" y="0px"
	 width="180px" height="180px" viewBox="0 0 180 180" enable-background="new 0 0 180 180" xml:space="preserve">
<path d="M24,24v132h132V24H24z M93.57,137.37c-1.94,3.96-5.65,6.52-9.96,7.76c-6.62,1.49-12.94,0.58-17.64-2.23
	c-3.16-1.9-5.6-4.88-7.28-8.34l10.04-6.19c0.09,0,0.35,0.5,0.7,1.08c1.28,2.14,2.39,3.62,4.56,4.7c2.12,0.67,6.8,1.15,8.61-2.64
	c1.11-1.92,0.76-8.14,0.76-14.91c0-10.67,0.05-21.27,0.05-31.93h12.36l-0.02,0.31c0,11.38,0.07,22.69,0,33.99
	C95.79,125.98,96.38,132.25,93.57,137.37z M144.53,133.22c-4.29,14.68-28.22,15.18-37.79,5.52c-1.98-2.31-3.3-3.46-4.46-6.1
	l10.07-5.78c2.72,4.12,5.19,6.36,9.65,7.35c6.03,0.74,12.13-1.32,10.81-7.76c-1.4-5.29-12.38-6.52-19.89-12.13
	c-7.59-5.12-9.4-17.49-3.13-24.59c2.14-2.64,5.69-4.62,9.41-5.53l3.88-0.49c7.51-0.17,12.12,1.81,15.59,5.69
	c1,0.98,1.74,1.98,3.22,4.29c-3.97,2.47-3.97,2.47-9.65,6.19c-1.24-2.64-3.22-4.29-5.37-4.95c-3.3-0.99-7.51,0.08-8.33,3.63
	c-0.32,1.07-0.25,2.06,0.25,3.88c1.34,3.05,5.84,4.37,9.88,6.27c11.63,4.72,15.55,9.78,16.52,15.8l-0.25-0.37
	C145.85,129.35,144.69,132.73,144.53,133.22z"/>
</svg>
