<?xml version="1.0" encoding="utf-8"?>
<!-- Generator: Adobe Illustrator 16.0.0, SVG Export Plug-In . SVG Version: 6.00 Build 0)  -->
<!DOCTYPE svg PUBLIC "-//W3C//DTD SVG 1.1//EN" "http://www.w3.org/Graphics/SVG/1.1/DTD/svg11.dtd">
<svg version="1.1" id="Layer_2" xmlns="http://www.w3.org/2000/svg" xmlns:xlink="http://www.w3.org/1999/xlink" x="0px" y="0px"
	 width="180px" height="180px" viewBox="0 0 180 180" enable-background="new 0 0 180 180" xml:space="preserve">
<g>
	<path d="M162.67,89.56c0,0.63,0,1.26,0,1.88c-0.67,3.69-3.24,6.07-5.74,8.56c-19.04,19-38.07,38.02-57.06,57.07
		c-2.45,2.46-4.81,4.94-8.42,5.6c-0.63,0-1.26,0-1.88,0c-1.84-1-3.95-1.7-5.46-3.06c-3.73-3.35-7.2-7-10.75-10.55
		C57,132.73,40.67,116.38,24.31,100.05c-2.44-2.44-5.01-4.75-5.98-8.24c0-1.01,0-2.01,0-3.02c1.13-1.84,1.95-3.98,3.43-5.47
		c13.6-13.76,27.31-27.4,40.99-41.08c0.47-0.47,0.98-0.89,1.45-1.31c0.34,0.21,0.52,0.28,0.65,0.41c4.94,4.92,9.89,9.83,14.76,14.81
		c0.42,0.43,0.53,1.46,0.37,2.12c-1.15,4.95,0.66,9.77,4.97,12.37c1.23,0.74,1.52,1.53,1.51,2.85c-0.04,11.68-0.05,23.36,0,35.04
		c0.01,1.57-0.32,2.56-1.79,3.47c-4.18,2.56-5.95,7.58-4.63,12.3c1.32,4.71,5.61,8.01,10.58,8.14c4.67,0.13,9.08-2.95,10.71-7.46
		c1.64-4.54,0.16-9.75-3.79-12.58c-1.23-0.89-1.66-1.78-1.66-3.24c0.05-11.43,0.03-22.86,0.03-34.29c0-0.6,0.06-1.19,0.1-1.92
		c0.35,0.16,0.54,0.2,0.65,0.31c4.36,4.34,8.74,8.67,13.03,13.08c0.41,0.42,0.4,1.47,0.26,2.17c-0.82,4.13,0.06,7.76,3.11,10.69
		c3.09,2.96,6.78,3.95,10.94,2.75c5.63-1.63,9.09-7.62,7.74-13.29c-1.38-5.82-7.18-9.58-13.02-8.37c-1.2,0.25-1.98-0.07-2.81-0.92
		c-4.18-4.26-8.37-8.51-12.67-12.64c-1.36-1.31-2.04-2.52-1.35-4.39c0.24-0.66,0.14-1.5,0.05-2.23c-0.91-7.55-8.11-11.29-13.45-9.91
		c-0.63,0.16-1.65-0.11-2.11-0.56c-4.85-4.74-9.61-9.58-14.44-14.34c-0.87-0.86-0.91-1.43-0.01-2.29c2.67-2.57,5.25-5.23,7.88-7.84
		c2.69-2.67,5.09-5.74,8.98-6.85c1.01,0,2.01,0,3.02,0c3.49,0.97,5.8,3.54,8.24,5.98c18.81,18.84,37.64,37.67,56.48,56.48
		C159.11,83.36,161.81,85.8,162.67,89.56z"/>
</g>
</svg>
