<?xml version="1.0" encoding="utf-8"?>
<!-- Generator: Adobe Illustrator 16.0.0, SVG Export Plug-In . SVG Version: 6.00 Build 0)  -->
<!DOCTYPE svg PUBLIC "-//W3C//DTD SVG 1.1//EN" "http://www.w3.org/Graphics/SVG/1.1/DTD/svg11.dtd">
<svg version="1.1" id="Layer_2" xmlns="http://www.w3.org/2000/svg" xmlns:xlink="http://www.w3.org/1999/xlink" x="0px" y="0px"
	 width="180px" height="180px" viewBox="0 0 180 180" enable-background="new 0 0 180 180" xml:space="preserve">
<g id="XMLID_1_">
	<path d="M24.19,15.33l11.97,134.42l53.74,14.92l53.94-14.97l11.97-134.37H24.19L24.19,15.33z M133.57,141.18L90,153.26
		l-43.57-12.08L36.16,26.33H90h53.84L133.57,141.18z"/>
</g>
<polygon points="90.05,42.54 90,42.54 48,42.54 48.42,47 52.51,93.2 90,93.2 90.05,93.2 110.63,93.2 108.69,114.94 90,119.98 
	90,120.03 71.31,114.94 70.1,101.6 61.02,101.6 53.3,101.6 55.61,127.91 90,137.46 124.33,127.91 124.6,125.07 128.53,80.97 
	128.95,76.46 124.44,76.46 90.05,76.46 90,76.46 67.84,76.46 66.32,59.29 90,59.29 90.05,59.29 130.42,59.29 130.48,59.29 
	130.85,55.51 131.58,47 132,42.54 "/>
</svg>
