<?xml version="1.0" encoding="utf-8"?>
<!-- Generator: Adobe Illustrator 16.0.0, SVG Export Plug-In . SVG Version: 6.00 Build 0)  -->
<!DOCTYPE svg PUBLIC "-//W3C//DTD SVG 1.1//EN" "http://www.w3.org/Graphics/SVG/1.1/DTD/svg11.dtd">
<svg version="1.1" id="Layer_1" xmlns="http://www.w3.org/2000/svg" xmlns:xlink="http://www.w3.org/1999/xlink" x="0px" y="0px"
	 width="180px" height="180px" viewBox="0 0 180 180" enable-background="new 0 0 180 180" xml:space="preserve">
<g>
	<path fill="#FFFFFF" d="M47.3,99.16c5.61,0,10.16-4.55,10.16-10.17c0-5.62-4.55-10.16-10.16-10.16c-5.58,0-10.17,4.55-10.17,10.16
		C37.14,94.62,41.69,99.16,47.3,99.16z"/>
	<circle fill="#FFFFFF" cx="91.24" cy="88.88" r="10.16"/>
	<path fill="#FFFFFF" d="M124.86,88.88c0,5.62,4.55,10.17,10.16,10.17c5.62,0,10.16-4.55,10.16-10.17c0-5.58-4.58-10.16-10.16-10.16
		C129.41,78.72,124.86,83.27,124.86,88.88z"/>
	<path fill="#FFFFFF" d="M96.66,73.06l16.22-32.79l16.18,32.99c0.67-0.24,1.34-0.47,2.06-0.63l16.38-48.25H78.19l16.29,48.1
		C95.24,72.63,95.95,72.83,96.66,73.06z"/>
	<path fill="#FFFFFF" d="M135.03,105.57c-9.13,0-16.58-7.37-16.73-16.46l-10.33-0.14c-0.05,9.18-7.55,16.65-16.73,16.65
		c-0.83,0-1.66-0.08-2.49-0.2c-2.73,4.27-6.05,8.31-9.89,11.94c-5.97,5.62-12.7,9.77-19.97,12.38l-1.35,0.47l-1.27-0.63
		c-9.25-4.75-13.64-14.79-10.83-24.01c-1.5-0.16-2.97-0.52-4.31-1.07c-0.44,0.95-0.91,1.9-1.39,2.89
		c-2.77,5.62-5.58,11.47-6.64,17.8c-1.15,6.84-1.58,19.34,8.15,26.06c13.25,9.22,27.37,2.21,43.67-5.89
		c8.15-4.03,16.57-8.23,25.27-10.36c3.28-0.83,6.68-1.31,9.93-1.78c6.09-0.87,11.83-1.7,16.61-4.47c5.14-2.97,8.66-7.95,9.65-13.64
		c0.75-4.31,0.04-8.66-1.82-12.54C141.87,104.46,138.59,105.57,135.03,105.57z"/>
</g>
</svg>
