<?xml version="1.0" encoding="utf-8"?>
<!-- Generator: Adobe Illustrator 16.0.0, SVG Export Plug-In . SVG Version: 6.00 Build 0)  -->
<!DOCTYPE svg PUBLIC "-//W3C//DTD SVG 1.1//EN" "http://www.w3.org/Graphics/SVG/1.1/DTD/svg11.dtd">
<svg version="1.1" id="Layer_2" xmlns="http://www.w3.org/2000/svg" xmlns:xlink="http://www.w3.org/1999/xlink" x="0px" y="0px"
	 width="180px" height="180px" viewBox="0 0 180 180" enable-background="new 0 0 180 180" xml:space="preserve">
<g>
	<path fill-rule="evenodd" clip-rule="evenodd" d="M71.78,74.06c0,1.67,0,3.33,0,5.08c-7.35,0-14.66,0-22.02,0c0,2.76,0,5.45,0,8.21
		c5.89,0,11.76,0,17.66,0c0,1.71,0,3.35,0,5.07c-5.87,0-11.74,0-17.66,0c0,2.83,0,5.58,0,8.39c7.32,0,14.62,0,21.97,0
		c0,1.71,0,3.37,0,5.12c-0.24,0-0.49,0-0.74,0c-10.91,0-21.81,0-32.71,0.01c-0.48,0-0.79-0.13-1.1-0.52
		c-6.39-7.98-12.8-15.94-19.2-23.91c-0.12-0.15-0.25-0.29-0.5-0.58c0,8.41,0,16.66,0,25c-1.89,0-3.68,0-5.47,0
		c0-10.62,0-21.24,0-31.86c2.28,0,4.56,0,6.85,0c0.06,0.09,0.12,0.18,0.19,0.26c8.1,10.07,16.19,20.14,24.29,30.21
		c0.27,0.34,0.54,0.67,0.93,1.14c0-10.66,0-21.14,0-31.61C53.43,74.06,62.61,74.06,71.78,74.06z"/>
	<path fill-rule="evenodd" clip-rule="evenodd" d="M111.02,74.06c-0.13,0.22-0.25,0.46-0.41,0.66c-3.85,4.81-7.71,9.61-11.57,14.42
		c-0.22,0.27-0.44,0.55-0.71,0.89c4.22,5.25,8.45,10.51,12.74,15.84c-0.23,0.03-0.39,0.06-0.55,0.06c-2.02,0-4.04,0.02-6.05-0.02
		c-0.28,0-0.64-0.17-0.81-0.38c-8.28-10.28-16.55-20.57-24.81-30.87c-0.14-0.18-0.23-0.4-0.35-0.6c2.37,0,4.74,0,7.11,0
		c0.11,0.18,0.2,0.37,0.33,0.54c2.19,2.73,4.39,5.46,6.58,8.19c0.73,0.91,1.47,1.83,2.23,2.77c0.19-0.23,0.33-0.39,0.47-0.56
		c2.94-3.65,5.88-7.29,8.82-10.94C106.37,74.06,108.69,74.06,111.02,74.06z"/>
	<path fill-rule="evenodd" clip-rule="evenodd" d="M144.59,74.06c0,1.66,0,3.33,0,5.08c-3.66,0-7.26,0-10.93,0
		c0,8.96,0,17.83,0,26.74c-1.83,0-3.6,0-5.45,0c0-8.86,0-17.74,0-26.69c-3.74,0-7.41,0-11.14,0c0-1.77,0-3.45,0-5.13
		C126.25,74.06,135.42,74.06,144.59,74.06z"/>
	<path fill-rule="evenodd" clip-rule="evenodd" d="M168,102.63c-1.11,2.47-3.06,3.49-5.97,3.11c-1.01-0.13-1.99-0.36-2.82-0.99
		c-0.99-0.75-1.48-1.75-1.5-3.03c0.79,0,1.55,0,2.3,0c0.64,1.97,3.28,2.72,4.9,1.4c0.95-0.76,0.85-2.06-0.26-2.57
		c-0.79-0.36-1.66-0.54-2.49-0.81c-0.73-0.24-1.48-0.43-2.17-0.75c-2.72-1.25-2.45-4.6-0.33-5.92c2.05-1.27,4.2-1.3,6.32-0.17
		c1.12,0.6,1.77,1.6,1.81,3.04c-0.71,0-1.4,0.02-2.09-0.02c-0.11,0-0.27-0.21-0.31-0.35c-0.43-1.72-3.7-1.8-4.58-0.59
		c-0.52,0.72-0.41,1.67,0.4,2.09c0.69,0.36,1.47,0.55,2.21,0.79c0.46,0.15,0.93,0.24,1.39,0.38c1.53,0.47,2.72,1.31,3.19,2.93
		C168,101.67,168,102.15,168,102.63z"/>
	<path fill-rule="evenodd" clip-rule="evenodd" d="M78.44,105.85c3.61-4.49,7.19-8.94,10.83-13.47c1.21,1.5,2.38,2.95,3.58,4.45
		c-1.28,1.59-2.54,3.16-3.8,4.73c-1.07,1.33-2.13,2.67-3.22,3.99c-0.15,0.18-0.41,0.37-0.62,0.38c-2.17,0.03-4.34,0.01-6.51,0.01
		C78.64,105.94,78.59,105.9,78.44,105.85z"/>
	<path fill-rule="evenodd" clip-rule="evenodd" d="M153.11,92.35c0.82,0,1.56,0,2.4,0c0,0.21,0,0.42,0,0.63
		c0,2.79-0.02,5.57,0.01,8.36c0.01,1.65-0.44,3.07-1.99,3.86c-1.65,0.84-3.36,0.81-4.97-0.14c-1.06-0.62-1.56-1.62-1.52-2.93
		c0.76,0,1.52,0,2.34,0c0.11,0.86,0.58,1.48,1.53,1.64c1.05,0.17,1.87-0.36,2.09-1.41c0.07-0.34,0.09-0.69,0.1-1.04
		c0.01-2.74,0-5.49,0-8.23C153.11,92.85,153.11,92.62,153.11,92.35z"/>
	<path fill-rule="evenodd" clip-rule="evenodd" d="M143.75,102.89c0.78-0.01,1.45,0.62,1.47,1.39c0.01,0.76-0.64,1.42-1.42,1.43
		c-0.8,0.01-1.45-0.61-1.46-1.38C142.32,103.55,142.96,102.91,143.75,102.89z"/>
</g>
</svg>
