<?xml version="1.0" encoding="utf-8"?>
<!-- Generator: Adobe Illustrator 16.0.0, SVG Export Plug-In . SVG Version: 6.00 Build 0)  -->
<!DOCTYPE svg PUBLIC "-//W3C//DTD SVG 1.1//EN" "http://www.w3.org/Graphics/SVG/1.1/DTD/svg11.dtd">
<svg version="1.1" id="Layer_2" xmlns="http://www.w3.org/2000/svg" xmlns:xlink="http://www.w3.org/1999/xlink" x="0px" y="0px"
	 width="180px" height="180px" viewBox="0 0 180 180" enable-background="new 0 0 180 180" xml:space="preserve">
<g>
	<path d="M89.1,137.77c-0.52,0-1.03-0.14-1.48-0.4l-4.7-2.78c-0.7-0.39-0.36-0.53-0.13-0.61c0.94-0.33,1.13-0.4,2.13-0.97
		c0.11-0.06,0.24-0.04,0.35,0.02l3.61,2.14c0.13,0.07,0.32,0.07,0.44,0l14.09-8.13c0.13-0.07,0.21-0.23,0.21-0.38v-16.26
		c0-0.16-0.08-0.31-0.22-0.39l-14.08-8.12c-0.13-0.08-0.3-0.08-0.43,0l-14.08,8.12c-0.14,0.08-0.22,0.23-0.22,0.38v16.26
		c0,0.16,0.08,0.3,0.22,0.38l3.86,2.23c2.1,1.05,3.37-0.19,3.37-1.43v-16.04c0-0.23,0.18-0.41,0.41-0.41h1.78
		c0.22,0,0.41,0.18,0.41,0.41v16.05c0,2.79-1.52,4.4-4.17,4.4c-0.81,0-1.46,0-3.25-0.88l-3.7-2.13c-0.91-0.53-1.48-1.52-1.48-2.57
		v-16.26c0-1.06,0.56-2.04,1.48-2.57l14.1-8.14c0.89-0.5,2.08-0.5,2.96,0l14.08,8.14c0.91,0.53,1.48,1.51,1.48,2.57v16.26
		c0,1.06-0.57,2.04-1.48,2.57l-14.08,8.14C90.14,137.63,89.62,137.76,89.1,137.77"/>
	<path d="M93.46,126.57c-6.16,0-7.46-2.83-7.46-5.2c0-0.22,0.18-0.41,0.41-0.41h1.82c0.2,0,0.37,0.15,0.4,0.34
		c0.27,1.85,1.09,2.79,4.82,2.79c2.97,0,4.23-0.67,4.23-2.25c0-0.9-0.36-1.58-4.97-2.03c-3.86-0.38-6.24-1.23-6.24-4.32
		c0-2.84,2.4-4.54,6.42-4.54c4.51,0,6.75,1.57,7.03,4.93c0.01,0.12-0.03,0.23-0.11,0.31c-0.08,0.08-0.19,0.13-0.3,0.13h-1.83
		c-0.19,0-0.36-0.13-0.4-0.32c-0.44-1.95-1.51-2.57-4.4-2.57c-3.24,0-3.62,1.13-3.62,1.97c0,1.03,0.44,1.33,4.82,1.9
		c4.33,0.58,6.38,1.39,6.38,4.43c0,3.07-2.56,4.83-7.02,4.83"/>
	<path d="M45.48,74.16c0-0.65-0.34-1.25-0.9-1.57L29.64,64c-0.25-0.15-0.53-0.23-0.82-0.24h-0.15c-0.29,0.01-0.57,0.09-0.83,0.24
		L12.9,72.59c-0.56,0.32-0.9,0.92-0.9,1.57l0.03,23.15c0,0.32,0.17,0.62,0.45,0.78c0.27,0.17,0.62,0.17,0.9,0L22.26,93
		c0.56-0.33,0.9-0.92,0.9-1.57V80.63c0-0.65,0.34-1.24,0.9-1.56l3.78-2.18c0.28-0.16,0.59-0.24,0.9-0.24c0.31,0,0.62,0.08,0.9,0.24
		l3.78,2.18c0.56,0.32,0.9,0.92,0.9,1.56v10.81c0,0.64,0.35,1.24,0.9,1.57l8.87,5.08c0.28,0.17,0.63,0.17,0.9,0
		c0.27-0.16,0.45-0.46,0.45-0.78L45.48,74.16z M115.96,86.21c0,0.16-0.09,0.31-0.22,0.39l-5.13,2.96c-0.14,0.08-0.31,0.08-0.45,0
		l-5.13-2.96c-0.14-0.08-0.23-0.23-0.23-0.39v-5.92c0-0.16,0.08-0.31,0.22-0.39l5.13-2.96c0.14-0.08,0.31-0.08,0.46,0l5.13,2.96
		c0.14,0.08,0.22,0.23,0.22,0.39L115.96,86.21z M117.35,42.34c-0.28-0.16-0.62-0.15-0.9,0.01c-0.28,0.16-0.45,0.46-0.45,0.78v22.92
		c0,0.23-0.12,0.43-0.32,0.55c-0.19,0.11-0.43,0.11-0.63,0l-3.74-2.16c-0.56-0.32-1.24-0.32-1.8,0l-14.94,8.62
		c-0.56,0.32-0.9,0.92-0.9,1.56v17.25c0,0.64,0.34,1.24,0.9,1.56l14.94,8.63c0.56,0.32,1.25,0.32,1.81,0l14.94-8.63
		c0.56-0.32,0.9-0.92,0.9-1.56v-43c0-0.65-0.36-1.26-0.93-1.58L117.35,42.34z M167.1,80.13c0.55-0.32,0.9-0.92,0.9-1.56v-4.18
		c0-0.64-0.34-1.24-0.9-1.56l-14.85-8.62c-0.56-0.32-1.25-0.32-1.81,0l-14.94,8.62c-0.56,0.32-0.9,0.92-0.9,1.56v17.24
		c0,0.65,0.35,1.25,0.91,1.57l14.84,8.46c0.55,0.31,1.22,0.32,1.77,0.01l8.98-4.99c0.28-0.16,0.46-0.46,0.46-0.78
		c0-0.32-0.17-0.63-0.46-0.79l-15.03-8.62c-0.28-0.16-0.46-0.46-0.46-0.78v-5.41c0-0.32,0.17-0.62,0.45-0.78l4.68-2.7
		c0.28-0.16,0.62-0.16,0.9,0l4.68,2.7c0.28,0.16,0.45,0.46,0.45,0.78v4.25c0,0.32,0.17,0.62,0.45,0.78c0.28,0.16,0.62,0.16,0.9,0
		L167.1,80.13z"/>
	<path d="M151.13,79.33c0.11-0.06,0.24-0.06,0.35,0l2.87,1.65c0.11,0.06,0.17,0.18,0.17,0.3v3.31c0,0.12-0.07,0.24-0.17,0.3
		l-2.87,1.65c-0.11,0.06-0.24,0.06-0.35,0l-2.87-1.65c-0.11-0.06-0.18-0.18-0.18-0.3v-3.31c0-0.12,0.06-0.24,0.17-0.3L151.13,79.33z
		"/>
	<path d="M86.31,74.46L86.31,74.46c0-0.65-0.34-1.25-0.9-1.57L70.48,64.3c-0.25-0.15-0.54-0.23-0.82-0.24H69.5
		c-0.29,0.01-0.57,0.09-0.83,0.24l-14.94,8.59c-0.56,0.32-0.9,0.92-0.9,1.57v17.11h0l0,0c0,0.65,0.34,1.24,0.9,1.57l14.94,8.59
		c0.25,0.15,0.54,0.23,0.82,0.24h0.15c0.29-0.01,0.57-0.09,0.83-0.24l14.94-8.59c0.56-0.32,0.9-0.92,0.9-1.57L86.31,74.46
		L86.31,74.46z"/>
</g>
</svg>
