<?xml version="1.0" encoding="utf-8"?>
<!-- Generator: Adobe Illustrator 16.0.0, SVG Export Plug-In . SVG Version: 6.00 Build 0)  -->
<!DOCTYPE svg PUBLIC "-//W3C//DTD SVG 1.1//EN" "http://www.w3.org/Graphics/SVG/1.1/DTD/svg11.dtd">
<svg version="1.1" id="Layer_1" xmlns="http://www.w3.org/2000/svg" xmlns:xlink="http://www.w3.org/1999/xlink" x="0px" y="0px"
	 width="180px" height="180px" viewBox="0 0 180 180" enable-background="new 0 0 180 180" xml:space="preserve">
<g id="XMLID_1_">
	<path id="XMLID_2_" fill="#FFFFFF" d="M140.22,65.59c-1.62-0.55-3.29-1.07-5-1.58c0.3-1.16,0.55-2.31,0.77-3.42
		c3.8-18.47,1.33-33.34-7.18-38.21c-8.12-4.7-21.46,0.21-34.88,11.88c-1.28,1.11-2.61,2.31-3.89,3.55c-0.86-0.81-1.71-1.62-2.57-2.4
		C73.37,22.89,59.27,17.64,50.8,22.55c-8.12,4.7-10.56,18.68-7.14,36.16c0.34,1.71,0.73,3.42,1.15,5.17
		c-2.01,0.55-3.93,1.15-5.77,1.79C22.55,71.44,12,80.46,12,89.82c0,9.66,11.32,19.36,28.51,25.26c1.37,0.47,2.78,0.9,4.23,1.33
		c-0.47,1.88-0.9,3.76-1.24,5.56c-3.25,17.18-0.73,30.82,7.39,35.52c8.38,4.83,22.44-0.13,36.12-12.1c1.07-0.94,2.18-1.96,3.25-2.99
		c1.41,1.37,2.82,2.65,4.23,3.85c13.25,11.41,26.37,16.03,34.45,11.33c8.38-4.83,11.07-19.49,7.57-37.36
		c-0.26-1.37-0.6-2.73-0.94-4.19c0.98-0.3,1.96-0.6,2.91-0.9c17.86-5.94,29.53-15.51,29.53-25.3
		C167.96,80.46,157.06,71.4,140.22,65.59z M136.33,108.84c-0.86,0.3-1.71,0.55-2.61,0.81c-1.96-6.24-4.66-12.91-7.91-19.75
		c3.12-6.71,5.69-13.25,7.61-19.49c1.58,0.47,3.16,0.94,4.66,1.45c14.45,4.96,23.25,12.31,23.25,18
		C161.29,95.89,151.81,103.71,136.33,108.84z M129.92,121.54c1.58,7.91,1.79,15,0.77,20.6c-0.94,5-2.78,8.33-5.13,9.7
		c-4.91,2.86-15.43-0.86-26.75-10.6c-1.28-1.11-2.61-2.31-3.93-3.59c4.4-4.79,8.81-10.39,13.08-16.59
		c7.52-0.68,14.66-1.75,21.11-3.25C129.41,119.06,129.71,120.3,129.92,121.54z M65.12,151.33c-4.79,1.71-8.64,1.75-10.94,0.42
		c-4.91-2.82-6.96-13.8-4.19-28.5c0.3-1.67,0.68-3.42,1.15-5.17c6.41,1.41,13.46,2.44,21.03,3.04c4.32,6.07,8.85,11.67,13.38,16.54
		c-0.98,0.94-1.97,1.88-2.99,2.74C76.54,145.69,70.47,149.45,65.12,151.33z M42.64,108.8c-7.61-2.61-13.89-5.98-18.21-9.66
		c-3.89-3.33-5.81-6.58-5.81-9.27c0-5.69,8.46-12.91,22.61-17.87c1.71-0.6,3.5-1.15,5.38-1.71c1.97,6.37,4.53,12.99,7.61,19.71
		c-3.12,6.79-5.73,13.55-7.69,20C45.16,109.61,43.88,109.23,42.64,108.8z M50.16,57.47c-2.95-15-0.98-26.29,3.93-29.11
		c5.21-3.03,16.76,1.28,28.94,12.1c0.77,0.68,1.54,1.41,2.35,2.18c-4.53,4.87-9.02,10.43-13.29,16.46
		c-7.35,0.68-14.36,1.75-20.82,3.25C50.85,60.63,50.51,59.01,50.16,57.47z M117.49,74.05c-1.54-2.65-3.12-5.26-4.74-7.82
		c4.96,0.64,9.74,1.45,14.23,2.48c-1.33,4.32-3.04,8.81-5,13.42C120.56,79.52,119.07,76.79,117.49,74.05z M90.04,47.34
		c3.08,3.33,6.16,7.05,9.19,11.07c-3.03-0.13-6.16-0.21-9.27-0.21c-3.08,0-6.15,0.09-9.19,0.21C83.8,54.43,86.92,50.71,90.04,47.34z
		 M62.43,74.14c-1.54,2.69-2.99,5.38-4.4,8.08c-1.92-4.62-3.59-9.15-4.96-13.51c4.45-0.98,9.19-1.79,14.15-2.44
		C65.55,68.79,63.97,71.44,62.43,74.14L62.43,74.14z M67.35,113.93c-5.13-0.55-9.92-1.33-14.36-2.31c1.37-4.45,3.08-9.06,5.04-13.76
		c1.41,2.69,2.86,5.38,4.4,8.08l0,0C64.01,108.67,65.64,111.32,67.35,113.93z M90.21,132.86c-3.16-3.42-6.33-7.18-9.4-11.24
		c2.99,0.13,6.03,0.17,9.15,0.17c3.16,0,6.33-0.09,9.4-0.21C96.33,125.73,93.25,129.49,90.21,132.86z M122.02,97.6
		c2.09,4.74,3.84,9.36,5.25,13.72c-4.53,1.03-9.4,1.88-14.53,2.48c1.62-2.57,3.2-5.21,4.79-7.95
		C119.11,103.12,120.6,100.38,122.02,97.6z M111.71,102.56c-2.44,4.23-4.96,8.25-7.48,12.1c-4.62,0.34-9.41,0.51-14.28,0.51
		s-9.57-0.17-14.1-0.43c-2.65-3.85-5.21-7.91-7.61-12.1l0,0c-2.44-4.19-4.66-8.38-6.67-12.56c2.01-4.19,4.23-8.42,6.62-12.57l0,0
		c2.4-4.19,4.96-8.21,7.57-12.05c4.66-0.34,9.4-0.51,14.19-0.51l0,0c4.83,0,9.57,0.17,14.23,0.55c2.57,3.8,5.08,7.82,7.52,12.01
		c2.44,4.23,4.7,8.42,6.71,12.52C116.42,94.1,114.15,98.33,111.71,102.56z M125.48,28.15c5.21,2.99,7.27,15.17,3.98,31.12
		c-0.21,1.03-0.43,2.05-0.68,3.12c-6.45-1.5-13.51-2.61-20.85-3.29c-4.28-6.11-8.72-11.67-13.21-16.46c1.2-1.15,2.4-2.26,3.59-3.29
		C109.79,29.26,120.56,25.33,125.48,28.15z M89.96,75.93c7.69,0,13.93,6.24,13.93,13.94c0,7.69-6.24,13.93-13.93,13.93
		c-7.69,0-13.93-6.24-13.93-13.93C76.02,82.17,82.26,75.93,89.96,75.93z"/>
</g>
</svg>
