<?xml version="1.0" encoding="utf-8"?>
<!-- Generator: Adobe Illustrator 16.0.0, SVG Export Plug-In . SVG Version: 6.00 Build 0)  -->
<!DOCTYPE svg PUBLIC "-//W3C//DTD SVG 1.1//EN" "http://www.w3.org/Graphics/SVG/1.1/DTD/svg11.dtd">
<svg version="1.1" id="Layer_1" xmlns="http://www.w3.org/2000/svg" xmlns:xlink="http://www.w3.org/1999/xlink" x="0px" y="0px"
	 width="180px" height="180px" viewBox="0 0 180 180" enable-background="new 0 0 180 180" xml:space="preserve">
<g>
	<path fill="#FFFFFF" d="M90,43.13c-20.83,0-33.85,10.42-39.06,31.25c7.81-10.42,16.92-14.32,27.34-11.72
		c5.94,1.48,10.19,5.8,14.89,10.57C100.83,81,109.7,90,129.06,90c20.83,0,33.85-10.42,39.06-31.25
		c-7.81,10.42-16.92,14.32-27.34,11.72c-5.94-1.48-10.19-5.8-14.89-10.57C118.22,52.13,109.36,43.13,90,43.13z M50.94,90
		c-20.83,0-33.85,10.42-39.06,31.25c7.81-10.42,16.92-14.32,27.34-11.72c5.94,1.49,10.19,5.8,14.89,10.57
		c7.66,7.78,16.52,16.77,35.88,16.77c20.83,0,33.85-10.42,39.06-31.25c-7.81,10.42-16.92,14.32-27.34,11.72
		c-5.94-1.48-10.19-5.8-14.89-10.57C79.17,99,70.3,90,50.94,90z"/>
</g>
</svg>
