<?xml version="1.0" encoding="utf-8"?>
<!-- Generator: Adobe Illustrator 16.0.0, SVG Export Plug-In . SVG Version: 6.00 Build 0)  -->
<!DOCTYPE svg PUBLIC "-//W3C//DTD SVG 1.1//EN" "http://www.w3.org/Graphics/SVG/1.1/DTD/svg11.dtd">
<svg version="1.1" id="Layer_1" xmlns="http://www.w3.org/2000/svg" xmlns:xlink="http://www.w3.org/1999/xlink" x="0px" y="0px"
	 width="180px" height="180px" viewBox="0 0 180 180" enable-background="new 0 0 180 180" xml:space="preserve">
<path fill="#FFFFFF" d="M90,12H12v78v78h78h78V90V12H90z M101.46,96.88H91.29H81.16v28.85v28.85h-7.18H66.8v-28.85V96.88H56.62
	H46.45l0.04-6.37l0.14-6.41l27.27-0.08c14.96,0,27.31,0.04,27.4,0.13c0.09,0.08,0.17,2.99,0.17,6.45V96.88z M154.45,142.74
	c-2.48,6.5-8.63,10.9-17.27,12.36c-2.69,0.47-9.02,0.38-11.88-0.13c-6.28-1.11-12.22-4.19-15.85-8.29
	c-1.45-1.58-4.23-5.73-4.06-6.03c0.09-0.08,0.73-0.51,1.45-0.9c0.68-0.38,3.33-1.92,5.81-3.33l4.49-2.61l0.94,1.37
	c1.33,2.01,4.19,4.75,5.9,5.69c4.96,2.61,11.8,2.26,15.17-0.77c1.45-1.32,2.05-2.69,2.05-4.66c0-1.8-0.21-2.61-1.15-3.98
	c-1.2-1.75-3.68-3.21-10.73-6.24c-8.03-3.46-11.5-5.64-14.7-9.02c-1.84-1.97-3.55-5.17-4.28-7.78c-0.6-2.22-0.73-7.74-0.26-9.96
	c1.67-7.77,7.52-13.2,15.98-14.78c2.74-0.56,9.11-0.39,11.8,0.29c3.98,0.98,6.96,2.73,9.74,5.64c1.45,1.54,3.55,4.32,3.72,5
	c0.04,0.21-6.75,4.74-10.86,7.31c-0.13,0.08-0.72-0.55-1.41-1.54c-2.01-2.9-4.11-4.19-7.31-4.4c-4.74-0.34-7.78,2.14-7.74,6.28
	c0,1.2,0.17,1.92,0.68,2.91c1.03,2.13,2.99,3.46,9.02,6.07c11.16,4.79,15.94,7.99,18.94,12.48
	C155.99,128.76,156.71,136.76,154.45,142.74z"/>
</svg>
